<svg id="Layer_1" data-name="Layer 1" xmlns="http://www.w3.org/2000/svg" xmlns:xlink="http://www.w3.org/1999/xlink" width="16" height="16" viewBox="0 0 16 16"><defs><style>.cls-1{fill:none;}.cls-2{fill:#19b698;}.cls-3{fill:#555;}.cls-3,.cls-4{fill-rule:evenodd;}.cls-4{fill:url(#New_Pattern_Swatch_3);}</style><pattern id="New_Pattern_Swatch_3" data-name="New Pattern Swatch 3" width="6" height="6" patternUnits="userSpaceOnUse" viewBox="0 0 6 6"><rect class="cls-1" width="6" height="6"/><rect class="cls-2" width="6" height="6"/></pattern></defs><title>add</title><g id="Add_Document_1" data-name="Add Document 1"><path class="cls-3" d="M14.6,3.6,11.4.4a1.5,1.5,0,0,0-.9-.4H2A.9.9,0,0,0,1,1V15a.9.9,0,0,0,1,1H14a.9.9,0,0,0,1-1V4.5A1.5,1.5,0,0,0,14.6,3.6ZM13,14H3V2H9V5.5a.5.5,0,0,0,.5.5H13Z"/><path class="cls-4" d="M9,7.5A.5.5,0,0,0,8.5,7h-1a.5.5,0,0,0-.5.5V9H5.5a.5.5,0,0,0-.5.5v1a.5.5,0,0,0,.5.5H7v1.5a.5.5,0,0,0,.5.5h1a.5.5,0,0,0,.5-.5V11h1.5a.5.5,0,0,0,.5-.5v-1a.5.5,0,0,0-.5-.5H9Z"/></g></svg>