<svg id="Layer_1" data-name="Layer 1" xmlns="http://www.w3.org/2000/svg" xmlns:xlink="http://www.w3.org/1999/xlink" width="16" height="16" viewBox="0 0 16 16"><defs><style>.cls-1{fill:none;}.cls-2{fill:#4aa3df;}.cls-3{fill:url(#New_Pattern_Swatch_4);}</style><pattern id="New_Pattern_Swatch_4" data-name="New Pattern Swatch 4" width="6" height="6" patternTransform="translate(-0.1 -5.4)" patternUnits="userSpaceOnUse" viewBox="0 0 6 6"><rect class="cls-1" width="6" height="6"/><rect class="cls-2" width="6" height="6"/></pattern></defs><title>arrow-resize-090</title><path id="Expand_Vertically_1" data-name="Expand Vertically 1" class="cls-3" d="M11.8,11H8.9V5h2.9c.3,0,.4-.2.2-.5L8.3.2c-.2-.3-.4-.2-.6,0L4,4.5c-.2.3-.1.5.2.5H6.9v6H4.2c-.3,0-.4.2-.2.5l3.7,4.3c.2.3.4.2.6,0L12,11.5C12.2,11.2,12.1,11,11.8,11Z"/></svg>