<svg id="Layer_1" data-name="Layer 1" xmlns="http://www.w3.org/2000/svg" xmlns:xlink="http://www.w3.org/1999/xlink" width="16" height="16" viewBox="0 0 16 16"><defs><style>.cls-1{fill:none;}.cls-2{fill:#4aa3df;}.cls-3{fill:url(#New_Pattern_Swatch_4);}</style><pattern id="New_Pattern_Swatch_4" data-name="New Pattern Swatch 4" width="6" height="6" patternTransform="translate(6)" patternUnits="userSpaceOnUse" viewBox="0 0 6 6"><rect class="cls-1" width="6" height="6"/><rect class="cls-2" width="6" height="6"/></pattern></defs><title>arrow-resize</title><path id="Expand_Horizontally_1" data-name="Expand Horizontally 1" class="cls-3" d="M5,11.8V8.9h6v2.9c0,.3.2.4.4.2l4.4-3.7c.3-.2.2-.4,0-.6L11.4,4c-.2-.2-.4-.1-.4.2V6.9H5V4.2c0-.3-.2-.4-.5-.2L.2,7.7c-.3.2-.2.4,0,.6L4.5,12C4.8,12.2,5,12.1,5,11.8Z"/></svg>