<svg id="Layer_1" data-name="Layer 1" xmlns="http://www.w3.org/2000/svg" xmlns:xlink="http://www.w3.org/1999/xlink" width="16" height="16" viewBox="0 0 16 16"><defs><style>.cls-1{fill:none;}.cls-2{fill:#19b698;}.cls-3{fill:url(#New_Pattern_Swatch_3);}</style><pattern id="New_Pattern_Swatch_3" data-name="New Pattern Swatch 3" width="6" height="6" patternTransform="translate(2 2) rotate(180)" patternUnits="userSpaceOnUse" viewBox="0 0 6 6"><rect class="cls-1" width="6" height="6"/><rect class="cls-2" width="6" height="6"/></pattern></defs><title>arrow_rotate_anticlockwise</title><path id="Refresh_1" data-name="Refresh 1" class="cls-3" d="M.8,1.2,2.1,2.6l.3-.2A7.8,7.8,0,0,1,8,0,8,8,0,1,1,.3,10.3,1.2,1.2,0,0,1,1,9a1,1,0,0,1,1.2.7A6,6,0,1,0,8,2,6,6,0,0,0,3.8,3.8L3.6,4,5.8,6.2c.4.5.2.8-.4.8H.5A.5.5,0,0,1,0,6.5V1.6C0,1,.3.8.8,1.2Z"/></svg>