<svg id="Layer_1" data-name="Layer 1" xmlns="http://www.w3.org/2000/svg" width="16" height="16" viewBox="0 0 16 16"><defs><style>.cls-1{fill:#3fa9f5;}</style></defs><title>arrow-in-out</title><g id="Maximize_1_Expand_1" data-name="Maximize 1, Expand 1"><path class="cls-1" d="M3.7,2.3,5.3.7C5.7.3,5.6,0,5,0H.5A.5.5,0,0,0,0,.5V5c0,.6.3.7.7.3L2.3,3.7,5.4,6.9h.7l.8-.8a.8.8,0,0,0,0-.7Z"/><path class="cls-1" d="M15.5,0H11c-.6,0-.7.3-.3.7l1.6,1.6L9.1,5.4a.8.8,0,0,0,0,.7l.8.8h.7l3.1-3.2,1.6,1.6c.4.4.7.3.7-.3V.5A.5.5,0,0,0,15.5,0Z"/><path class="cls-1" d="M15.3,10.7l-1.6,1.6L10.6,9.1H9.9l-.8.8a.8.8,0,0,0,0,.7l3.2,3.1-1.6,1.6c-.4.4-.3.7.3.7h4.5a.5.5,0,0,0,.5-.5V11C16,10.4,15.7,10.3,15.3,10.7Z"/><path class="cls-1" d="M6.1,9.1H5.4L2.3,12.3.7,10.7c-.4-.4-.7-.3-.7.3v4.5a.5.5,0,0,0,.5.5H5c.6,0,.7-.3.3-.7L3.7,13.7l3.2-3.1a.8.8,0,0,0,0-.7Z"/></g><g id="Minimize_1_Contract_1" data-name="Minimize 1, Contract 1"><path class="cls-1" d="M3.3,4.7,1.7,6.3c-.4.4-.3.7.3.7H6.5A.5.5,0,0,0,7,6.5V2c0-.6-.3-.7-.7-.3L4.7,3.3,1.6.1H.9L.1.9a.8.8,0,0,0,0,.7Z"/><path class="cls-1" d="M9.5,7H14c.6,0,.7-.3.3-.7L12.7,4.7l3.2-3.1a.8.8,0,0,0,0-.7L15.1.1h-.7L11.3,3.3,9.7,1.7C9.3,1.3,9,1.4,9,2V6.5A.5.5,0,0,0,9.5,7Z"/><path class="cls-1" d="M9.7,14.3l1.6-1.6,3.1,3.2h.7l.8-.8a.8.8,0,0,0,0-.7l-3.2-3.1,1.6-1.6c.4-.4.3-.7-.3-.7H9.5a.5.5,0,0,0-.5.5V14C9,14.6,9.3,14.7,9.7,14.3Z"/><path class="cls-1" d="M.9,15.9h.7l3.1-3.2,1.6,1.6c.4.4.7.3.7-.3V9.5A.5.5,0,0,0,6.5,9H2c-.6,0-.7.3-.3.7l1.6,1.6L.1,14.4a.8.8,0,0,0,0,.7Z"/></g></svg>