<svg id="Layer_1" data-name="Layer 1" xmlns="http://www.w3.org/2000/svg" xmlns:xlink="http://www.w3.org/1999/xlink" width="16" height="16" viewBox="0 0 16 16"><defs><style>.cls-1{fill:none;}.cls-2{fill:#19b698;}.cls-3{fill:#555;}.cls-4{fill-rule:evenodd;fill:url(#New_Pattern_Swatch_3);}</style><pattern id="New_Pattern_Swatch_3" data-name="New Pattern Swatch 3" width="6" height="6" patternTransform="translate(6)" patternUnits="userSpaceOnUse" viewBox="0 0 6 6"><rect class="cls-1" width="6" height="6"/><rect class="cls-2" width="6" height="6"/></pattern></defs><title>bullet_add</title><g id="Plus_2" data-name="Plus 2"><path class="cls-3" d="M8,0a8,8,0,1,0,8,8A8,8,0,0,0,8,0ZM8,14a6,6,0,1,1,6-6A6,6,0,0,1,8,14Z"/><path class="cls-4" d="M10.9,7H9V5.1a1,1,0,0,0-2,0V7H5.1a1,1,0,0,0,0,2H7v1.9a1,1,0,0,0,2,0V9h1.9a1,1,0,0,0,0-2Z"/></g></svg>