<svg id="Layer_1" data-name="Layer 1" xmlns="http://www.w3.org/2000/svg" width="16" height="16" viewBox="0 0 16 16"><defs><style>.cls-1{fill:#555;}</style></defs><title>calendar-select-days-span</title><g id="Calendar_3" data-name="Calendar 3"><rect class="cls-1" x="10" y="10" width="2" height="2"/><rect class="cls-1" x="3" width="2" height="2" rx="0.5"/><rect class="cls-1" x="10" y="7" width="2" height="2"/><rect class="cls-1" x="11" width="2" height="2" rx="0.5"/><path class="cls-1" d="M13.5,3h-3a.5.5,0,0,1-.5-.5V.5A.5.5,0,0,0,9.5,0h-3A.5.5,0,0,0,6,.5v2a.5.5,0,0,1-.5.5h-3A.5.5,0,0,1,2,2.5V.5A.5.5,0,0,0,1.5,0H1A.9.9,0,0,0,0,1V15a.9.9,0,0,0,1,1H15a.9.9,0,0,0,1-1V1a.9.9,0,0,0-1-1h-.5a.5.5,0,0,0-.5.5v2A.5.5,0,0,1,13.5,3ZM14,14H2V5H14Z"/><rect class="cls-1" x="4" y="7" width="2" height="2"/><rect class="cls-1" x="7" y="7" width="2" height="2"/><rect class="cls-1" x="4" y="10" width="2" height="2"/><rect class="cls-1" x="7" y="10" width="2" height="2"/></g></svg>