<svg id="Layer_1" data-name="Layer 1" xmlns="http://www.w3.org/2000/svg" width="19" height="96" viewBox="0 0 19 96"><defs><style>.cls-1,.cls-3{fill:#19b698;}.cls-2{fill:#ccc;}.cls-3{stroke:#19b698;stroke-miterlimit:10;}.cls-4{fill:none;}</style></defs><title>checks2</title><g id="Target_1_Aim_2" data-name="Target 1 Aim 2"><path class="cls-1" d="M9.5,55.6a4,4,0,1,0,4,4A4,4,0,0,0,9.5,55.6Z"/><path class="cls-2" d="M9.5,51.6a8,8,0,1,0,8,8A8,8,0,0,0,9.5,51.6Zm0,14a6,6,0,1,1,6-6A6,6,0,0,1,9.5,65.6Z"/></g><path class="cls-2" d="M9.5,75.6a8,8,0,1,0,8,8A8,8,0,0,0,9.5,75.6Zm0,14a6,6,0,1,1,6-6A6,6,0,0,1,9.5,89.6Z"/><g id="Checkmark_1" data-name="Checkmark 1"><path class="cls-3" d="M7.7,38.7,4.4,35.4c-.2-.1-.2-.4,0-.6h0l.7-.7c.1-.2.4-.2.6,0l2.4,2.3,5.2-5.1c.2-.2.5-.2.6,0l.7.7c.2.1.2.4,0,.6h0L8.4,38.7A.5.5,0,0,1,7.7,38.7Z"/></g><path class="cls-2" d="M16.9,26.5H2.1A1.1,1.1,0,0,0,1,27.6H1V42.4a1.1,1.1,0,0,0,1.1,1.1H16.9A1.1,1.1,0,0,0,18,42.4V27.6a1.1,1.1,0,0,0-1.1-1.1Zm-1,14.9H3.1V28.6H15.9Z"/><path class="cls-2" d="M16.9,2.5H2.1A1.1,1.1,0,0,0,1,3.6V18.4a1.1,1.1,0,0,0,1.1,1.1H16.9A1.1,1.1,0,0,0,18,18.4h0V3.6a1.1,1.1,0,0,0-1.1-1.1Zm-1,14.9H3.1V4.6H15.9Z"/><rect class="cls-4" width="19" height="96"/></svg>