<svg id="Layer_1" data-name="Layer 1" xmlns="http://www.w3.org/2000/svg" width="16" height="16" viewBox="0 0 16 16"><defs><style>.cls-1{fill:#555;}</style></defs><title>comment</title><g id="Post_Comment_2" data-name="Post Comment 2"><rect class="cls-1" x="4" y="4" width="8" height="2" rx="0.5"/><rect class="cls-1" x="4" y="7" width="8" height="2" rx="0.5"/><path class="cls-1" d="M15,0H1A.9.9,0,0,0,0,1V12a.9.9,0,0,0,1,1H2v2a.9.9,0,0,0,1,1H4.5L9.3,13H15a.9.9,0,0,0,1-1V1A.9.9,0,0,0,15,0ZM14,11H8.5L4,13.8V12a.9.9,0,0,0-1-1H2V2H14Z"/></g></svg>