<svg id="Layer_1" data-name="Layer 1" xmlns="http://www.w3.org/2000/svg" width="16" height="16" viewBox="0 0 16 16"><defs><style>.cls-1,.cls-2{fill:#555;}.cls-1{fill-rule:evenodd;}</style></defs><title>comments</title><g id="Chat_2" data-name="Chat 2"><path class="cls-1" d="M12,3H1A.9.9,0,0,0,0,4v9a.9.9,0,0,0,1,1H5l2.6,1.7a1.9,1.9,0,0,0,.9.3h2a.5.5,0,0,0,.5-.5V14h1a.9.9,0,0,0,1-1V4A.9.9,0,0,0,12,3Zm-1,9H9v2L6,12H2V5h9Z"/><path class="cls-1" d="M15,0H4A.9.9,0,0,0,3,1V2H13.5a.5.5,0,0,1,.5.5V11h1a.9.9,0,0,0,1-1V1A.9.9,0,0,0,15,0Z"/><rect class="cls-2" x="3" y="6" width="7" height="2" rx="0.5"/><rect class="cls-2" x="3" y="9" width="7" height="2" rx="0.5"/></g></svg>