<svg id="Layer_1" data-name="Layer 1" xmlns="http://www.w3.org/2000/svg" xmlns:xlink="http://www.w3.org/1999/xlink" width="16" height="16" viewBox="0 0 16 16"><defs><style>.cls-1{fill:none;}.cls-2{fill:#19b698;}.cls-3{fill:url(#New_Pattern_Swatch_3);}</style><pattern id="New_Pattern_Swatch_3" data-name="New Pattern Swatch 3" width="6" height="6" patternUnits="userSpaceOnUse" viewBox="0 0 6 6"><rect class="cls-1" width="6" height="6"/><rect class="cls-2" width="6" height="6"/></pattern></defs><title>database_green</title><path id="Server_1" data-name="Server 1" class="cls-3" d="M16,4c0-2.6-4-4-8-4S0,1.4,0,4H0V8H0v4c0,2.6,4,4,8,4s8-1.4,8-4V8h0V4ZM2,6.8A13.7,13.7,0,0,0,8,8a13.7,13.7,0,0,0,6-1.2V7.9c0,.3-.4.8-1.2,1.2A11.1,11.1,0,0,1,8,10a11.1,11.1,0,0,1-4.8-.9C2.3,8.7,2,8.2,2,8ZM8,2c3.7,0,6,1.3,6,2S11.7,6,8,6,2,4.7,2,4,4.3,2,8,2ZM8,14c-3.7,0-6-1.3-6-2V10.7l.3.2A13.8,13.8,0,0,0,8,12a13.8,13.8,0,0,0,5.7-1.1l.3-.2V12C14,12.7,11.7,14,8,14Z"/></svg>