<svg id="Layer_1" data-name="Layer 1" xmlns="http://www.w3.org/2000/svg" xmlns:xlink="http://www.w3.org/1999/xlink" width="16" height="16" viewBox="0 0 16 16"><defs><style>.cls-1{fill:none;}.cls-2{fill:#ea6153;}.cls-3{fill:#555;}.cls-4{fill-rule:evenodd;fill:url(#New_Pattern_Swatch_5);}</style><pattern id="New_Pattern_Swatch_5" data-name="New Pattern Swatch 5" width="6" height="6" patternTransform="translate(2 5)" patternUnits="userSpaceOnUse" viewBox="0 0 6 6"><rect class="cls-1" width="6" height="6"/><rect class="cls-2" width="6" height="6"/></pattern></defs><title>disconnect</title><path class="cls-3" d="M8.7,8.7,7.3,10.1,5.9,8.7,7.3,7.3A1,1,0,0,0,5.9,5.9L4.5,7.3a1,1,0,0,0-1.4,0L.3,10.1a1,1,0,0,0,0,1.4l1.4,1.4L.6,14l-.5.5a.8.8,0,0,0,0,.7l.7.7h.7l.5-.5H2l1.1-1.1,1.4,1.4a1,1,0,0,0,1.4,0l2.8-2.8a1,1,0,0,0,0-1.4l1.4-1.4A1,1,0,0,0,8.7,8.7ZM5.2,13.6,2.4,10.8,3.8,9.4l2.8,2.8Z"/><path class="cls-3" d="M14.3,3.1,15.4,2h0l.5-.5a.8.8,0,0,0,0-.7L15.2.1h-.7L14,.6,12.9,1.7,11.5.3a1,1,0,0,0-1.4,0L7.3,3.1a1,1,0,0,0,0,1.4l4.2,4.2a1,1,0,0,0,1.4,0l2.8-2.8a1,1,0,0,0,0-1.4ZM12.2,6.6,9.4,3.8l1.4-1.4,2.8,2.8Z"/><g id="X_2" data-name="X 2"><path class="cls-4" d="M12.5,9A3.5,3.5,0,1,0,16,12.5,3.5,3.5,0,0,0,12.5,9Zm0,6.1a2.6,2.6,0,1,1,2.6-2.6A2.6,2.6,0,0,1,12.5,15.1Z"/><path class="cls-4" d="M13.7,11.3a.4.4,0,0,0-.6,0l-.6.6-.6-.6a.4.4,0,0,0-.6.6l.6.6-.6.6a.4.4,0,0,0,.6.6l.6-.6.6.6a.4.4,0,0,0,.6-.6l-.6-.6.6-.6A.4.4,0,0,0,13.7,11.3Z"/></g></svg>