<svg id="Layer_1" data-name="Layer 1" xmlns="http://www.w3.org/2000/svg" xmlns:xlink="http://www.w3.org/1999/xlink" width="16" height="16" viewBox="0 0 16 16"><defs><style>.cls-1{fill:none;}.cls-2{fill:#19b698;}.cls-3{fill:#555;}.cls-3,.cls-4{fill-rule:evenodd;}.cls-4{fill:url(#New_Pattern_Swatch_3);}</style><pattern id="New_Pattern_Swatch_3" data-name="New Pattern Swatch 3" width="6" height="6" patternUnits="userSpaceOnUse" viewBox="0 0 6 6"><rect class="cls-1" width="6" height="6"/><rect class="cls-2" width="6" height="6"/></pattern></defs><title>download</title><g id="Download_1" data-name="Download 1"><path class="cls-3" d="M15.5,7h-1a.5.5,0,0,0-.5.5V13H2V7.5A.5.5,0,0,0,1.5,7H.5a.5.5,0,0,0-.5.5V14a.9.9,0,0,0,1,1H15a.9.9,0,0,0,1-1V7.5A.5.5,0,0,0,15.5,7Z"/><path class="cls-4" d="M7.7,10.8q.3.4.6,0l2.6-3.3a.3.3,0,0,0-.2-.5H9V1.5A.5.5,0,0,0,8.5,1h-1a.5.5,0,0,0-.5.5V7H5.3a.3.3,0,0,0-.2.5Z"/></g></svg>