<svg id="Layer_1" data-name="Layer 1" xmlns="http://www.w3.org/2000/svg" xmlns:xlink="http://www.w3.org/1999/xlink" width="16" height="16" viewBox="0 0 16 16"><defs><style>.cls-1{fill:none;}.cls-2{fill:#f16e3f;}.cls-3{fill:#555;}.cls-4{fill:#fff;}.cls-5{fill:url(#New_Pattern_Swatch_2);}</style><pattern id="New_Pattern_Swatch_2" data-name="New Pattern Swatch 2" width="6" height="6" patternTransform="translate(-9 -5.6) scale(1.14)" patternUnits="userSpaceOnUse" viewBox="0 0 6 6"><rect class="cls-1" width="6" height="6"/><rect class="cls-2" width="6" height="6"/></pattern></defs><title>eye--exclamation</title><g id="Eye_2_View_2" data-name="Eye 2, View 2"><path class="cls-3" d="M15.7,7.6c-2-3.1-4.8-4.9-7.7-4.9A8.8,8.8,0,0,0,.3,7.6L0,8l.3.5c1.8,2.9,4.8,4.8,7.7,4.8a9.6,9.6,0,0,0,7.7-4.7l.3-.5ZM8,11.6A7.7,7.7,0,0,1,2,8,7.4,7.4,0,0,1,8,4.4c2.1,0,4.3,1.4,5.9,3.7A7.7,7.7,0,0,1,8,11.6Z"/><path class="cls-3" d="M8,5.3A2.6,2.6,0,0,0,5.4,8,2.6,2.6,0,0,0,8,10.7,2.7,2.7,0,0,0,8,5.3Z"/></g><path class="cls-4" d="M16,14.3,12.6,8a1,1,0,0,0-1.7,0L7.1,15.1a1.4,1.4,0,0,0,0,.9H16Z"/><g id="Exclamation_Point_1_Warning_1_Caution_1" data-name="Exclamation Point 1, Warning 1, Caution 1"><rect class="cls-5" x="11.3" y="11.3" width="0.9" height="1.89" rx="0.2"/><rect class="cls-5" x="11.3" y="13.6" width="0.9" height="0.94" rx="0.2"/><path class="cls-5" d="M15.9,15.3,12.2,8.2a.6.6,0,0,0-.9,0L7.6,15.3a.5.5,0,0,0,0,.5L8,16h7.5l.4-.2A.5.5,0,0,0,15.9,15.3Zm-7.1-.2,3-5.6,2.9,5.6Z"/></g></svg>