<svg id="Layer_1" data-name="Layer 1" xmlns="http://www.w3.org/2000/svg" width="16" height="16" viewBox="0 0 16 16"><defs><style>.cls-1{fill:#555;}</style></defs><title>eye</title><g id="Eye_2_View_2" data-name="Eye 2, View 2"><path class="cls-1" d="M15.7,7.6c-2-3.1-4.8-4.9-7.7-4.9A8.8,8.8,0,0,0,.3,7.6L0,8l.3.5c1.8,2.9,4.8,4.8,7.7,4.8a9.6,9.6,0,0,0,7.7-4.7l.3-.5ZM8,11.6A7.7,7.7,0,0,1,2,8,7.4,7.4,0,0,1,8,4.4c2.1,0,4.3,1.4,5.9,3.7A7.7,7.7,0,0,1,8,11.6Z"/><path class="cls-1" d="M8,5.3A2.6,2.6,0,0,0,5.4,8,2.6,2.6,0,0,0,8,10.7,2.7,2.7,0,0,0,8,5.3Z"/></g></svg>