<svg id="Layer_1" data-name="Layer 1" xmlns="http://www.w3.org/2000/svg" xmlns:xlink="http://www.w3.org/1999/xlink" width="16" height="16" viewBox="0 0 16 16"><defs><style>.cls-1{fill:none;}.cls-2{fill:#19b698;}.cls-3{fill:#555;fill-rule:evenodd;}.cls-4{fill:#fff;}.cls-5{fill:url(#New_Pattern_Swatch_3);}</style><pattern id="New_Pattern_Swatch_3" data-name="New Pattern Swatch 3" width="6" height="6" patternTransform="translate(23.9 4.3) scale(0.47)" patternUnits="userSpaceOnUse" viewBox="0 0 6 6"><rect class="cls-1" width="6" height="6"/><rect class="cls-2" width="6" height="6"/></pattern></defs><title>film_link</title><path id="Film_Strip_1_Film_1" data-name="Film Strip 1, Film 1" class="cls-3" d="M11.8,2H.8a.9.9,0,0,0-.8.8v9.4a.9.9,0,0,0,.8.8h11a.9.9,0,0,0,.8-.8V2.8A.9.9,0,0,0,11.8,2ZM11,5.1H9.4V3.6H11Zm0,3.2H9.4V6.7H11ZM1.6,3.6H3.1V5.1H1.6Zm0,3.1H3.1V8.3H1.6Zm0,4.7V9.9H3.1v1.5Zm3.1,0V3.6H7.9v7.8Zm6.3,0H9.4V9.9H11Z"/><rect class="cls-4" x="10.7" y="11.7" width="5.3" height="4.27"/><path class="cls-4" d="M16,9.7,14.7,8.4a1.7,1.7,0,0,0-2.1,0L11.2,9.8a1.6,1.6,0,0,0-.3.9h0c0,.1.1.2.1.3a1.1,1.1,0,0,0-1.2.2L8.4,12.6a1.7,1.7,0,0,0,0,2.1L9.7,16H12l1.3-1.3a.8.8,0,0,0,.3-.9h0v-.3a.9.9,0,0,0,1.1-.2L16,12Z"/><g id="Link_2" data-name="Link 2"><path class="cls-5" d="M13,8.8l-1.4,1.4c-.1.1-.2.3-.1.4a7.7,7.7,0,0,0,.2,1.5l-.8.9a.4.4,0,0,0,0,.6.5.5,0,0,0,.7,0l.4-.3v.5l-.9.9a.5.5,0,0,1-.7,0L9.9,14a.5.5,0,0,1,0-.7l1-1a.5.5,0,0,0,0-.7.5.5,0,0,0-.7,0L8.8,13a.9.9,0,0,0,0,1.3l1.4,1.4a1,1,0,0,0,1.4,0L13,14.3c.1-.1.1-.2.1-.4l-.3-1.5.8-.8a.5.5,0,0,0,0-.7.4.4,0,0,0-.6,0l-.4.4v-.6l.8-.8a.5.5,0,0,1,.7,0l.7.6a.5.5,0,0,1,0,.7l-1.1,1.1c-.2.2-.1.5,0,.7h.7l1.4-1.4a1,1,0,0,0,0-1.4L14.3,8.8A.9.9,0,0,0,13,8.8Z"/></g></svg>