<svg id="Layer_1" data-name="Layer 1" xmlns="http://www.w3.org/2000/svg" xmlns:xlink="http://www.w3.org/1999/xlink" width="16" height="16" viewBox="0 0 16 16"><defs><style>.cls-1{fill:none;}.cls-2{fill:#19b698;}.cls-3{fill:url(#New_Pattern_Swatch_3);}</style><pattern id="New_Pattern_Swatch_3" data-name="New Pattern Swatch 3" width="6" height="6" patternUnits="userSpaceOnUse" viewBox="0 0 6 6"><rect class="cls-1" width="6" height="6"/><rect class="cls-2" width="6" height="6"/></pattern></defs><title>flag</title><path id="Flag_2_Finish_2" data-name="Flag 2, Finish 2" class="cls-3" d="M8,1H2A.9.9,0,0,0,1,0,.9.9,0,0,0,0,1V15.5a.5.5,0,0,0,.5.5h1a.5.5,0,0,0,.5-.5V11H7v1a.9.9,0,0,0,1,1h7a.9.9,0,0,0,1-1V4a.9.9,0,0,0-1-1H9V2A.9.9,0,0,0,8,1ZM9,11V9.5A.5.5,0,0,0,8.5,9H2V3H7V4.5a.5.5,0,0,0,.5.5H14v6Z"/></svg>