<svg id="Layer_1" data-name="Layer 1" xmlns="http://www.w3.org/2000/svg" width="16" height="16" viewBox="0 0 16 16"><defs><style>.cls-1,.cls-2{fill:#b3b3b3;}.cls-1{fill-rule:evenodd;}</style></defs><title>heart_login</title><path class="cls-1" d="M8.5,12.5a1.5,1.5,0,0,1,.1-.7l-.6.6L2.6,6.7a2.1,2.1,0,0,1,0-2.9,1.9,1.9,0,0,1,2.8,0L7.3,5.9a1,1,0,0,0,1.4,0l1.9-2.1a1.9,1.9,0,0,1,2.8,0,2.1,2.1,0,0,1,0,2.9L11.6,8.6h.9a4.1,4.1,0,0,1,1.6.3l.7-.7a4,4,0,0,0,0-5.7,3.9,3.9,0,0,0-5.6,0L8,3.8,6.8,2.4a3.9,3.9,0,0,0-5.6,0,4,4,0,0,0,0,5.7l6.1,6.4a1,1,0,0,0,1.4,0l.2-.3A4.7,4.7,0,0,1,8.5,12.5Z"/><g id="Plus_2" data-name="Plus 2"><path class="cls-2" d="M12.5,9A3.5,3.5,0,1,0,16,12.5,3.5,3.5,0,0,0,12.5,9Zm0,6.1a2.6,2.6,0,1,1,2.6-2.6A2.6,2.6,0,0,1,12.5,15.1Z"/><path class="cls-1" d="M13.8,12.1h-.9v-.9a.4.4,0,0,0-.8,0v.9h-.9a.4.4,0,1,0,0,.8h.9v.9a.4.4,0,1,0,.8,0v-.9h.9a.4.4,0,0,0,0-.8Z"/></g></svg>