<svg id="Layer_1" data-name="Layer 1" xmlns="http://www.w3.org/2000/svg" width="16" height="16" viewBox="0 0 16 16"><defs><style>.cls-1{fill:#555;fill-rule:evenodd;}</style></defs><title>heart</title><path id="Heart_1" data-name="Heart 1" class="cls-1" d="M8.7,14.5a1,1,0,0,1-1.4,0L1.2,8.1a4,4,0,0,1,0-5.7,3.9,3.9,0,0,1,5.6,0L8,3.8,9.2,2.4a3.9,3.9,0,0,1,5.6,0,4,4,0,0,1,0,5.7Zm0-8.6a1,1,0,0,1-1.4,0L5.4,3.8a1.9,1.9,0,0,0-2.8,0,2.1,2.1,0,0,0,0,2.9L8,12.4l5.4-5.7a2.1,2.1,0,0,0,0-2.9,1.9,1.9,0,0,0-2.8,0Z"/></svg>