<svg id="Layer_1" data-name="Layer 1" xmlns="http://www.w3.org/2000/svg" width="16" height="16" viewBox="0 0 16 16"><defs><style>.cls-1{fill:#555;}</style></defs><title>icon-16-hint</title><g id="Lightbulb_3" data-name="Lightbulb 3"><path class="cls-1" d="M6.1,15.1a.9.9,0,0,0,1,.9H8.9a.9.9,0,0,0,1-.9h.5c.2,0,.4-.3.4-.5v-1a.4.4,0,0,0-.4-.4H5.6a.4.4,0,0,0-.4.4v1c0,.2.2.5.4.5Z"/><path class="cls-1" d="M2.4,5.6A5.6,5.6,0,0,0,3.8,9.4a5.7,5.7,0,0,1,1.3,2.4c0,.2.3.4.5.4h4.8c.2,0,.5-.2.5-.4a5.7,5.7,0,0,1,1.3-2.4,5.6,5.6,0,0,0,1.4-3.8,5.6,5.6,0,0,0-11.2,0Zm8.4,2.5a7.1,7.1,0,0,0-1.4,2.3H6.6A7.1,7.1,0,0,0,5.2,8.1a3.7,3.7,0,0,1-1-2.5,3.8,3.8,0,0,1,7.6,0A3.7,3.7,0,0,1,10.8,8.1Z"/></g></svg>