<svg id="Layer_1" data-name="Layer 1" xmlns="http://www.w3.org/2000/svg" xmlns:xlink="http://www.w3.org/1999/xlink" width="16" height="16" viewBox="0 0 16 16"><defs><style>.cls-1{fill:none;}.cls-2{fill:#19b698;}.cls-3{fill:#fff;}.cls-3,.cls-5,.cls-7{fill-rule:evenodd;}.cls-4,.cls-5{fill:url(#New_Pattern_Swatch_3);}.cls-6,.cls-7{fill:#555;}</style><pattern id="New_Pattern_Swatch_3" data-name="New Pattern Swatch 3" width="6" height="6" patternTransform="translate(23.5 15.5)" patternUnits="userSpaceOnUse" viewBox="0 0 6 6"><rect class="cls-1" width="6" height="6"/><rect class="cls-2" width="6" height="6"/></pattern></defs><title>image_add</title><path class="cls-3" d="M12.5,8.5a4,4,0,0,0-4,4A4.1,4.1,0,0,0,10.6,16H16V10.6A4.1,4.1,0,0,0,12.5,8.5Z"/><g id="Plus_2" data-name="Plus 2"><path class="cls-4" d="M12.5,9A3.5,3.5,0,1,0,16,12.5,3.5,3.5,0,0,0,12.5,9Zm0,6.1a2.6,2.6,0,1,1,2.6-2.6A2.6,2.6,0,0,1,12.5,15.1Z"/><path class="cls-5" d="M13.8,12.1h-.9v-.9a.4.4,0,0,0-.8,0v.9h-.9a.4.4,0,1,0,0,.8h.9v.9a.4.4,0,1,0,.8,0v-.9h.9a.4.4,0,0,0,0-.8Z"/></g><circle class="cls-6" cx="10.5" cy="5.5" r="1.5"/><path class="cls-7" d="M8.5,12.5a4,4,0,0,1,3.1-3.9l-.2-.2a.6.6,0,0,0-.8,0L9,10,5.4,6.4a.6.6,0,0,0-.8,0L3.4,7.6a1.5,1.5,0,0,0-.4.9v4a.5.5,0,0,0,.5.5h5Z"/><path class="cls-7" d="M15,0H1A.9.9,0,0,0,0,1V15a.9.9,0,0,0,1,1h9.6a3.9,3.9,0,0,1-1.8-2H2V2H14V8.8a3.9,3.9,0,0,1,2,1.8V1A.9.9,0,0,0,15,0Z"/></svg>