<svg id="Layer_1" data-name="Layer 1" xmlns="http://www.w3.org/2000/svg" xmlns:xlink="http://www.w3.org/1999/xlink" width="16" height="16" viewBox="0 0 16 16"><defs><style>.cls-1{fill:none;}.cls-2{fill:#19b698;}.cls-3{fill:#555;}.cls-4{fill:url(#New_Pattern_Swatch_3);}</style><pattern id="New_Pattern_Swatch_3" data-name="New Pattern Swatch 3" width="6" height="6" patternUnits="userSpaceOnUse" viewBox="0 0 6 6"><rect class="cls-1" width="6" height="6"/><rect class="cls-2" width="6" height="6"/></pattern></defs><title>insert_after_180</title><path class="cls-3" d="M13.9,13.4H14A8.2,8.2,0,0,0,16,8,8.3,8.3,0,0,0,9,.1.9.9,0,0,0,8,1,1.1,1.1,0,0,0,9,2.1,6.3,6.3,0,0,1,14,8a5.4,5.4,0,0,1-1.5,3.9h0l-1.7-1.8c-.5-.4-.8-.2-.8.4v4.9a.5.5,0,0,0,.5.5h4.9c.6,0,.8-.3.4-.8Z"/><path class="cls-4" d="M8,8.5v-1A.5.5,0,0,0,7.5,7H5V4.5A.5.5,0,0,0,4.5,4h-1a.5.5,0,0,0-.5.5V7H.5a.5.5,0,0,0-.5.5v1A.5.5,0,0,0,.5,9H3v2.5a.5.5,0,0,0,.5.5h1a.5.5,0,0,0,.5-.5V9H7.5A.5.5,0,0,0,8,8.5Z"/></svg>