<svg id="Layer_1" data-name="Layer 1" xmlns="http://www.w3.org/2000/svg" xmlns:xlink="http://www.w3.org/1999/xlink" width="16" height="16" viewBox="0 0 16 16"><defs><style>.cls-1{fill:none;}.cls-2{fill:#19b698;}.cls-3{fill:url(#New_Pattern_Swatch_3);}.cls-4{fill:#555;}</style><pattern id="New_Pattern_Swatch_3" data-name="New Pattern Swatch 3" width="6" height="6" patternTransform="translate(6)" patternUnits="userSpaceOnUse" viewBox="0 0 6 6"><rect class="cls-1" width="6" height="6"/><rect class="cls-2" width="6" height="6"/></pattern></defs><title>insert_before_180</title><path class="cls-3" d="M8,8.5v-1A.5.5,0,0,0,7.5,7H5V4.5A.5.5,0,0,0,4.5,4h-1a.5.5,0,0,0-.5.5V7H.5a.5.5,0,0,0-.5.5v1A.5.5,0,0,0,.5,9H3v2.5a.5.5,0,0,0,.5.5h1a.5.5,0,0,0,.5-.5V9H7.5A.5.5,0,0,0,8,8.5Z"/><path class="cls-4" d="M9,14a6.3,6.3,0,0,0,5-5.9,6.4,6.4,0,0,0-1.5-4h0L10.8,5.8c-.5.4-.8.3-.8-.3V.6a.6.6,0,0,1,.5-.6h4.9c.6,0,.8.4.4.8L13.9,2.7h0A7.9,7.9,0,0,1,16,8.1,8.3,8.3,0,0,1,9,16a.9.9,0,0,1-1-.9A1.2,1.2,0,0,1,9,14Z"/></svg>