<svg id="Layer_1" data-name="Layer 1" xmlns="http://www.w3.org/2000/svg" width="16" height="16" viewBox="0 0 16 16"><defs><style>.cls-1{fill:#555;fill-rule:evenodd;}</style></defs><title>insert_merge_field</title><path id="Multiple_Browsers_1" data-name="Multiple Browsers 1" class="cls-1" d="M15,0H5A1.1,1.1,0,0,0,4,1V4H1A1.1,1.1,0,0,0,0,5V15a1.1,1.1,0,0,0,1,1H11a1.1,1.1,0,0,0,1-1V12h3a1.1,1.1,0,0,0,1-1V1A1.1,1.1,0,0,0,15,0ZM2,5.5A.5.5,0,0,1,2.5,5h1a.5.5,0,0,1,.5.5v1a.5.5,0,0,1-.5.5h-1A.5.5,0,0,1,2,6.5ZM10,14H2V8h8Zm4-4H12V5a1.1,1.1,0,0,0-1-1H6V2h8Z"/></svg>