<svg id="Layer_1" data-name="Layer 1" xmlns="http://www.w3.org/2000/svg" xmlns:xlink="http://www.w3.org/1999/xlink" width="16" height="16" viewBox="0 0 16 16"><defs><style>.cls-1{fill:none;}.cls-2{fill:#19b698;}.cls-3{fill:#ec971f;}.cls-4,.cls-5{fill:url(#New_Pattern_Swatch_3);}.cls-5{fill-rule:evenodd;}</style><pattern id="New_Pattern_Swatch_3" data-name="New Pattern Swatch 3" width="6" height="6" patternTransform="translate(17.5 15.5)" patternUnits="userSpaceOnUse" viewBox="0 0 6 6"><rect class="cls-1" width="6" height="6"/><rect class="cls-2" width="6" height="6"/></pattern></defs><title>key_add</title><rect class="cls-3" x="8.8" y="4.1" width="2.1" height="4.13" rx="0.5" transform="translate(-1.5 8.7) rotate(-45)"/><path class="cls-3" d="M8.5,12.5a4,4,0,0,1,1.6-3.2l-1-1L6.6,10.8v.9H5.7L4.4,13v.9H2.1V12.4L7.6,6.9,6.1,5.4l3-2.9,4.4,4.4L11.8,8.6h.7a4.8,4.8,0,0,1,1.8.4l1.3-1.3a.9.9,0,0,0,.1-1.4L9.8.3A1.1,1.1,0,0,0,8.3.3L4,4.7A1,1,0,0,0,4,6.1l.7.8L.4,11.2a1.5,1.5,0,0,0-.4.9v3.3a.6.6,0,0,0,.5.6H5.9a.6.6,0,0,0,.6-.6V13.9H8.1c.3,0,.4-.2.5-.4A2.8,2.8,0,0,1,8.5,12.5Z"/><g id="Plus_2" data-name="Plus 2"><path class="cls-4" d="M12.5,9A3.5,3.5,0,1,0,16,12.5,3.5,3.5,0,0,0,12.5,9Zm0,6.1a2.6,2.6,0,1,1,2.6-2.6A2.6,2.6,0,0,1,12.5,15.1Z"/><path class="cls-5" d="M13.8,12.1h-.9v-.9a.4.4,0,0,0-.8,0v.9h-.9a.4.4,0,1,0,0,.8h.9v.9a.4.4,0,1,0,.8,0v-.9h.9a.4.4,0,0,0,0-.8Z"/></g></svg>