<svg id="Layer_1" data-name="Layer 1" xmlns="http://www.w3.org/2000/svg" xmlns:xlink="http://www.w3.org/1999/xlink" width="16" height="16" viewBox="0 0 16 16"><defs><style>.cls-1{fill:none;}.cls-2{fill:#4aa3df;}.cls-3{fill:#555;}.cls-4{fill:url(#New_Pattern_Swatch_4);}</style><pattern id="New_Pattern_Swatch_4" data-name="New Pattern Swatch 4" width="6" height="6" patternTransform="translate(0 2) rotate(-90)" patternUnits="userSpaceOnUse" viewBox="0 0 6 6"><rect class="cls-1" width="6" height="6"/><rect class="cls-2" width="6" height="6"/></pattern></defs><title>layout_content</title><g id="Layout_1" data-name="Layout 1"><path class="cls-3" d="M1,16H15a.9.9,0,0,0,1-1V1a.9.9,0,0,0-1-1H1A.9.9,0,0,0,0,1V15A.9.9,0,0,0,1,16ZM2,2H14V14H2Z"/><rect class="cls-3" x="4" y="9" width="3" height="3" rx="0.5"/><rect class="cls-3" x="4" y="4" width="3" height="3" rx="0.5"/><rect class="cls-4" x="9" y="4" width="3" height="8" rx="0.5"/></g></svg>