<svg id="Layer_1" data-name="Layer 1" xmlns="http://www.w3.org/2000/svg" xmlns:xlink="http://www.w3.org/1999/xlink" width="16" height="16" viewBox="0 0 16 16"><defs><style>.cls-1{fill:none;}.cls-2{fill:#19b698;}.cls-3{fill:#555;}.cls-4{fill:url(#New_Pattern_Swatch_3);}</style><pattern id="New_Pattern_Swatch_3" data-name="New Pattern Swatch 3" width="6" height="6" patternTransform="translate(23.8 4.3) scale(0.47)" patternUnits="userSpaceOnUse" viewBox="0 0 6 6"><rect class="cls-1" width="6" height="6"/><rect class="cls-2" width="6" height="6"/></pattern></defs><title>layout_link</title><rect class="cls-3" x="4" y="9" width="3" height="3" rx="0.5"/><rect class="cls-3" x="4" y="4" width="3" height="3" rx="0.5"/><path class="cls-3" d="M9.2,11.9l.6-.7A1.1,1.1,0,0,1,11,11c0-.1-.1-.2-.1-.3h0a1.6,1.6,0,0,1,.3-.9L12,9V4.5a.5.5,0,0,0-.5-.5h-2a.5.5,0,0,0-.5.5v7A.8.8,0,0,0,9.2,11.9Z"/><g id="Link_2" data-name="Link 2"><path class="cls-4" d="M13,8.8l-1.4,1.4c-.1.1-.2.3-.1.4a7.7,7.7,0,0,0,.2,1.5l-.8.9a.4.4,0,0,0,0,.6.5.5,0,0,0,.7,0l.4-.3v.5l-.9.9a.5.5,0,0,1-.7,0L9.9,14a.5.5,0,0,1,0-.7l1-1a.5.5,0,0,0,0-.7.5.5,0,0,0-.7,0L8.8,13a.9.9,0,0,0,0,1.3l1.4,1.4a1,1,0,0,0,1.4,0L13,14.3c.1-.1.1-.2.1-.4l-.3-1.5.8-.8a.5.5,0,0,0,0-.7.4.4,0,0,0-.6,0l-.4.4v-.6l.8-.8a.5.5,0,0,1,.7,0l.7.6a.5.5,0,0,1,0,.7l-1.1,1.1c-.2.2-.1.5,0,.7h.7l1.4-1.4a1,1,0,0,0,0-1.4L14.3,8.8A.9.9,0,0,0,13,8.8Z"/></g><path class="cls-3" d="M15,0H1A.9.9,0,0,0,0,1V15a.9.9,0,0,0,1,1H9.7L8.4,14.7a.9.9,0,0,1-.3-.7H2V2H14V8.1a.9.9,0,0,1,.7.3L16,9.7V1A.9.9,0,0,0,15,0Z"/></svg>