<svg id="Layer_1" data-name="Layer 1" xmlns="http://www.w3.org/2000/svg" xmlns:xlink="http://www.w3.org/1999/xlink" width="16" height="16" viewBox="0 0 16 16"><defs><style>.cls-1{fill:none;}.cls-2{fill:#19b698;}.cls-3,.cls-4{fill:url(#New_Pattern_Swatch_3);}.cls-4{fill-rule:evenodd;}.cls-5{fill:#555;}</style><pattern id="New_Pattern_Swatch_3" data-name="New Pattern Swatch 3" width="6" height="6" patternTransform="translate(23.5 15.5)" patternUnits="userSpaceOnUse" viewBox="0 0 6 6"><rect class="cls-1" width="6" height="6"/><rect class="cls-2" width="6" height="6"/></pattern></defs><title>layout_add</title><g id="Plus_2" data-name="Plus 2"><path class="cls-3" d="M12.5,9A3.5,3.5,0,1,0,16,12.5,3.5,3.5,0,0,0,12.5,9Zm0,6.1a2.6,2.6,0,1,1,2.6-2.6A2.6,2.6,0,0,1,12.5,15.1Z"/><path class="cls-4" d="M13.8,12.1h-.9v-.9a.4.4,0,0,0-.8,0v.9h-.9a.4.4,0,1,0,0,.8h.9v.9a.4.4,0,1,0,.8,0v-.9h.9a.4.4,0,0,0,0-.8Z"/></g><rect class="cls-5" x="4" y="9" width="3" height="3" rx="0.5"/><rect class="cls-5" x="4" y="4" width="3" height="3" rx="0.5"/><path class="cls-5" d="M12,8.6V4.5a.5.5,0,0,0-.5-.5h-2a.5.5,0,0,0-.5.5v6.1A3.8,3.8,0,0,1,12,8.6Z"/><path class="cls-5" d="M15,0H1A.9.9,0,0,0,0,1V15a.9.9,0,0,0,1,1h9.6a3.9,3.9,0,0,1-1.8-2H2V2H14V8.8a3.9,3.9,0,0,1,2,1.8V1A.9.9,0,0,0,15,0Z"/></svg>