<svg id="Layer_1" data-name="Layer 1" xmlns="http://www.w3.org/2000/svg" xmlns:xlink="http://www.w3.org/1999/xlink" width="16" height="16" viewBox="0 0 16 16"><defs><style>.cls-1{fill:none;}.cls-2{fill:#ea6153;}.cls-3{fill:#555;}.cls-4{fill:url(#New_Pattern_Swatch_5);}</style><pattern id="New_Pattern_Swatch_5" data-name="New Pattern Swatch 5" width="6" height="6" patternTransform="translate(2)" patternUnits="userSpaceOnUse" viewBox="0 0 6 6"><rect class="cls-1" width="6" height="6"/><rect class="cls-2" width="6" height="6"/></pattern></defs><title>list_del_h</title><path id="Right_4" data-name="Right 4" class="cls-3" d="M11.5,10h-8L5.9,7.6a.9.9,0,0,0,0-.7l-.7-.8a.5.5,0,0,0-.7,0L.1,10.7a.9.9,0,0,0,0,.7l4.4,4.5h.6l.7-.8a.5.5,0,0,0,0-.7L3.5,12h8a.5.5,0,0,0,.5-.5v-1A.5.5,0,0,0,11.5,10Z"/><path class="cls-4" d="M11,5h4.5a.5.5,0,0,0,.5-.5v-1a.5.5,0,0,0-.5-.5h-7a.5.5,0,0,0-.5.5v1a.5.5,0,0,0,.5.5H11Z"/></svg>