<svg id="Layer_1" data-name="Layer 1" xmlns="http://www.w3.org/2000/svg" xmlns:xlink="http://www.w3.org/1999/xlink" width="16" height="16" viewBox="0 0 16 16"><defs><style>.cls-1{fill:none;}.cls-2{fill:#19b698;}.cls-3{fill:url(#New_Pattern_Swatch_3);}.cls-4{fill:#555;}</style><pattern id="New_Pattern_Swatch_3" data-name="New Pattern Swatch 3" width="6" height="6" patternTransform="translate(6 -4)" patternUnits="userSpaceOnUse" viewBox="0 0 6 6"><rect class="cls-1" width="6" height="6"/><rect class="cls-2" width="6" height="6"/></pattern></defs><title>list_add_v</title><path class="cls-3" d="M8,4.5v-1A.5.5,0,0,0,7.5,3H5V.5A.5.5,0,0,0,4.5,0h-1A.5.5,0,0,0,3,.5V3H.5a.5.5,0,0,0-.5.5v1A.5.5,0,0,0,.5,5H3V7.5a.5.5,0,0,0,.5.5h1A.5.5,0,0,0,5,7.5V5H7.5A.5.5,0,0,0,8,4.5Z"/><path id="Right_4" data-name="Right 4" class="cls-4" d="M10,4.5v8L7.6,10.1H6.9l-.8.7a.9.9,0,0,0,0,.7l4.6,4.4h.7l4.5-4.4a.6.6,0,0,0,0-.6l-.8-.7a.5.5,0,0,0-.7,0L12,12.5v-8a.5.5,0,0,0-.5-.5h-1A.5.5,0,0,0,10,4.5Z"/></svg>