<svg id="Layer_1" data-name="Layer 1" xmlns="http://www.w3.org/2000/svg" xmlns:xlink="http://www.w3.org/1999/xlink" width="16" height="16" viewBox="0 0 16 16"><defs><style>.cls-1{fill:none;}.cls-2{fill:#ea6153;}.cls-3{fill:#555;}.cls-4{fill:url(#New_Pattern_Swatch_5);}</style><pattern id="New_Pattern_Swatch_5" data-name="New Pattern Swatch 5" width="6" height="6" patternTransform="translate(2)" patternUnits="userSpaceOnUse" viewBox="0 0 6 6"><rect class="cls-1" width="6" height="6"/><rect class="cls-2" width="6" height="6"/></pattern></defs><title>list_del_v</title><path id="Right_4" data-name="Right 4" class="cls-3" d="M6,15.5v-8L8.4,9.9h.7l.8-.7a.9.9,0,0,0,0-.7L5.3,4.1H4.6L.1,8.5a.6.6,0,0,0,0,.6l.8.7a.5.5,0,0,0,.7,0L4,7.5v8a.5.5,0,0,0,.5.5h1A.5.5,0,0,0,6,15.5Z"/><path class="cls-4" d="M11,5h4.5a.5.5,0,0,0,.5-.5v-1a.5.5,0,0,0-.5-.5h-7a.5.5,0,0,0-.5.5v1a.5.5,0,0,0,.5.5H11Z"/></svg>