<svg id="Layer_1" data-name="Layer 1" xmlns="http://www.w3.org/2000/svg" width="16" height="16" viewBox="0 0 16 16"><defs><style>.cls-1{fill:#555;}</style></defs><title>lock</title><g id="Lock_2" data-name="Lock 2"><path class="cls-1" d="M13,6V5A5,5,0,0,0,8,0,5,5,0,0,0,3,5V6A.9.9,0,0,0,2,7v8a.9.9,0,0,0,1,1H13a.9.9,0,0,0,1-1V7A.9.9,0,0,0,13,6ZM5,5A2.9,2.9,0,0,1,8,2a2.9,2.9,0,0,1,3,3V6H5Zm7,9H4V8h8Z"/><path class="cls-1" d="M7.5,13h1a.5.5,0,0,0,.5-.5V10A.9.9,0,0,0,8,9a.9.9,0,0,0-1,1v2.5A.5.5,0,0,0,7.5,13Z"/></g></svg>