<svg id="Layer_1" data-name="Layer 1" xmlns="http://www.w3.org/2000/svg" xmlns:xlink="http://www.w3.org/1999/xlink" width="16" height="16" viewBox="0 0 16 16"><defs><style>.cls-1{fill:none;}.cls-2{fill:#ea6153;}.cls-3{fill:#555;}.cls-4{fill:#fff;}.cls-4,.cls-6{fill-rule:evenodd;}.cls-5,.cls-6{fill:url(#New_Pattern_Swatch_5);}</style><pattern id="New_Pattern_Swatch_5" data-name="New Pattern Swatch 5" width="6" height="6" patternTransform="translate(3.5 15.5)" patternUnits="userSpaceOnUse" viewBox="0 0 6 6"><rect class="cls-1" width="6" height="6"/><rect class="cls-2" width="6" height="6"/></pattern></defs><title>lock_delete</title><g id="Lock_2" data-name="Lock 2"><path class="cls-3" d="M13,6V5A5,5,0,0,0,8,0,5,5,0,0,0,3,5V6A.9.9,0,0,0,2,7v8a.9.9,0,0,0,1,1H13a.9.9,0,0,0,1-1V7A.9.9,0,0,0,13,6ZM5,5A2.9,2.9,0,0,1,8,2a2.9,2.9,0,0,1,3,3V6H5Zm7,9H4V8h8Z"/><path class="cls-3" d="M7.5,13h1a.5.5,0,0,0,.5-.5V10A.9.9,0,0,0,8,9a.9.9,0,0,0-1,1v2.5A.5.5,0,0,0,7.5,13Z"/></g><path class="cls-4" d="M12.5,8.5a4,4,0,0,0-4,4A4.1,4.1,0,0,0,10.6,16H16V10.6A4.1,4.1,0,0,0,12.5,8.5Z"/><g id="Minus_2" data-name="Minus 2"><path class="cls-5" d="M12.5,9A3.5,3.5,0,1,0,16,12.5,3.5,3.5,0,0,0,12.5,9Zm0,6.1a2.6,2.6,0,1,1,2.6-2.6A2.6,2.6,0,0,1,12.5,15.1Z"/><path class="cls-6" d="M13.8,12.1H11.2a.4.4,0,1,0,0,.8h2.6a.4.4,0,0,0,0-.8Z"/></g></svg>