<svg id="Layer_1" data-name="Layer 1" xmlns="http://www.w3.org/2000/svg" width="16" height="16" viewBox="0 0 16 16"><defs><style>.cls-1{fill:#555;}</style></defs><title>magnifier</title><path id="Zoom_1_Magnifying_Glass_1" data-name="Zoom 1, Magnifying Glass 1" class="cls-1" d="M15.2,11.3,12.6,8.7A5.4,5.4,0,0,0,13,6.5,6.5,6.5,0,1,0,6.5,13a5.4,5.4,0,0,0,2.2-.4l2.6,2.6a2.7,2.7,0,0,0,1.9.8,2.8,2.8,0,0,0,2-.8A2.7,2.7,0,0,0,15.2,11.3ZM7,11H6.5A4.5,4.5,0,1,1,11,6.5V7a4.9,4.9,0,0,1-.8,2.1,5.7,5.7,0,0,1-1.1,1.1A4.9,4.9,0,0,1,7,11Zm6.8,2.8a.8.8,0,0,1-1.1,0l-2.2-2.2a5.7,5.7,0,0,0,1.1-1.1l2.2,2.2A.8.8,0,0,1,13.8,13.8Z"/></svg>