<svg id="Layer_1" data-name="Layer 1" xmlns="http://www.w3.org/2000/svg" xmlns:xlink="http://www.w3.org/1999/xlink" width="16" height="16" viewBox="0 0 16 16"><defs><style>.cls-1{fill:none;}.cls-2{fill:#19b698;}.cls-3{fill:#555;}.cls-3,.cls-4{fill-rule:evenodd;}.cls-4{fill:url(#New_Pattern_Swatch_3);}</style><pattern id="New_Pattern_Swatch_3" data-name="New Pattern Swatch 3" width="6" height="6" patternUnits="userSpaceOnUse" viewBox="0 0 6 6"><rect class="cls-1" width="6" height="6"/><rect class="cls-2" width="6" height="6"/></pattern></defs><title>monitor_go</title><path id="Imac_1_Computer_2" data-name="Imac 1, Computer 2" class="cls-3" d="M5,16h6a.9.9,0,0,0,1-1h0a.9.9,0,0,0-1-1H9V12h6a.9.9,0,0,0,1-1V1a.9.9,0,0,0-1-1H1A.9.9,0,0,0,0,1V11a.9.9,0,0,0,1,1H7v2H5a.9.9,0,0,0-1,1H4A.9.9,0,0,0,5,16Zm9-6H2V2H14Z"/><path class="cls-4" d="M8.6,3.2Q8,2.8,8,3.5V5H4.5a.5.5,0,0,0-.5.5v1a.5.5,0,0,0,.5.5H8V8.5q0,.8.6.3l3.1-2.3a.6.6,0,0,0,0-1Z"/></svg>