<svg id="Layer_1" data-name="Layer 1" xmlns="http://www.w3.org/2000/svg" xmlns:xlink="http://www.w3.org/1999/xlink" width="16" height="16" viewBox="0 0 16 16"><defs><style>.cls-1{fill:none;}.cls-2{fill:#19b698;}.cls-3{fill:url(#New_Pattern_Swatch_3);}</style><pattern id="New_Pattern_Swatch_3" data-name="New Pattern Swatch 3" width="6" height="6" patternTransform="translate(12)" patternUnits="userSpaceOnUse" viewBox="0 0 6 6"><rect class="cls-1" width="6" height="6"/><rect class="cls-2" width="6" height="6"/></pattern></defs><title>move2_uponly</title><g id="Maximize_1_Expand_1" data-name="Maximize 1, Expand 1"><path class="cls-3" d="M3.7,2.3,5.3.7C5.7.3,5.6,0,5,0H.5A.5.5,0,0,0,0,.5V5c0,.6.3.7.7.3L2.3,3.7,5.4,6.9h.7l.8-.8a.8.8,0,0,0,0-.7Z"/><path class="cls-3" d="M15.5,0H11c-.6,0-.7.3-.3.7l1.6,1.6L9.1,5.4a.8.8,0,0,0,0,.7l.8.8h.7l3.1-3.2,1.6,1.6c.4.4.7.3.7-.3V.5A.5.5,0,0,0,15.5,0Z"/></g></svg>