<svg id="Layer_1" data-name="Layer 1" xmlns="http://www.w3.org/2000/svg" xmlns:xlink="http://www.w3.org/1999/xlink" width="16" height="16" viewBox="0 0 16 16"><defs><style>.cls-1{fill:none;}.cls-2{fill:#19b698;}.cls-3{fill:url(#New_Pattern_Swatch_3);}</style><pattern id="New_Pattern_Swatch_3" data-name="New Pattern Swatch 3" width="6" height="6" patternTransform="translate(6)" patternUnits="userSpaceOnUse" viewBox="0 0 6 6"><rect class="cls-1" width="6" height="6"/><rect class="cls-2" width="6" height="6"/></pattern></defs><title>move2_downonly</title><g id="Maximize_1_Expand_1" data-name="Maximize 1, Expand 1"><path class="cls-3" d="M15.3,10.7l-1.6,1.6L10.6,9.1H9.9l-.8.8a.8.8,0,0,0,0,.7l3.2,3.1-1.6,1.6c-.4.4-.3.7.3.7h4.5a.5.5,0,0,0,.5-.5V11C16,10.4,15.7,10.3,15.3,10.7Z"/><path class="cls-3" d="M6.1,9.1H5.4L2.3,12.3.7,10.7c-.4-.4-.7-.3-.7.3v4.5a.5.5,0,0,0,.5.5H5c.6,0,.7-.3.3-.7L3.7,13.7l3.2-3.1a.8.8,0,0,0,0-.7Z"/></g></svg>