<svg id="Layer_1" data-name="Layer 1" xmlns="http://www.w3.org/2000/svg" width="16" height="16" viewBox="0 0 16 16"><defs><style>.cls-1{fill:#555;fill-rule:evenodd;}</style></defs><title>move</title><path id="Position_1_Move_1" data-name="Position 1, Move 1" class="cls-1" d="M15.8,7.5,13.5,5.2c-.3-.3-.5-.2-.5.3V7H9V3h1.5c.5,0,.6-.3.3-.6L8.5.4c-.3-.4-.7-.5-1-.2L5.1,2.5c-.2.3-.1.5.4.5H7V7H3V5.5c0-.5-.3-.6-.6-.3L.4,7.5c-.4.3-.6.7-.2,1l2.2,2.4c.4.2.6.1.6-.4V9H7v4H5.5c-.5,0-.7.3-.4.6l2.4,2c.3.4.7.6,1,.2l2.3-2.2q.4-.6-.3-.6H9V9h4v1.5c0,.5.3.6.6.4l2-2.4C16,8.2,16.1,7.8,15.8,7.5Z"/></svg>