<svg id="Layer_1" data-name="Layer 1" xmlns="http://www.w3.org/2000/svg" width="16" height="16" viewBox="0 0 16 16"><defs><style>.cls-1,.cls-2{fill:#555;}.cls-1{fill-rule:evenodd;}</style></defs><title>note</title><g id="Notepad_2" data-name="Notepad 2"><path class="cls-1" d="M15,0H1A.9.9,0,0,0,0,1V15a.9.9,0,0,0,1,1H15a.9.9,0,0,0,1-1V1A.9.9,0,0,0,15,0ZM14,14H2V4H14Z"/><rect class="cls-2" x="3" y="5" width="2" height="2" rx="0.5"/><rect class="cls-2" x="6" y="5" width="7" height="2" rx="0.5"/><rect class="cls-2" x="3" y="8" width="2" height="2" rx="0.5"/><rect class="cls-2" x="6" y="8" width="5" height="2" rx="0.5"/><rect class="cls-2" x="3" y="11" width="2" height="2" rx="0.5"/><rect class="cls-2" x="6" y="11" width="7" height="2" rx="0.5"/></g></svg>