<svg id="Layer_1" data-name="Layer 1" xmlns="http://www.w3.org/2000/svg" xmlns:xlink="http://www.w3.org/1999/xlink" width="16" height="16" viewBox="0 0 16 16"><defs><style>.cls-1{fill:none;}.cls-2{fill:#19b698;}.cls-3{fill:#555;}.cls-4{fill:#fff;}.cls-5{fill:url(#New_Pattern_Swatch_3);}</style><pattern id="New_Pattern_Swatch_3" data-name="New Pattern Swatch 3" width="6" height="6" patternTransform="translate(7.8 10.8) scale(0.64)" patternUnits="userSpaceOnUse" viewBox="0 0 6 6"><rect class="cls-1" width="6" height="6"/><rect class="cls-2" width="6" height="6"/></pattern></defs><title>page_multiple_edit</title><path id="Multiple_Documents_1" data-name="Multiple Documents 1" class="cls-3" d="M9.5,0H5A.9.9,0,0,0,4,1V3H1A1.1,1.1,0,0,0,0,4V15a1.1,1.1,0,0,0,1,1h9a1.1,1.1,0,0,0,1-1V13h2a.9.9,0,0,0,1-1V4.5a1.5,1.5,0,0,0-.4-.9L10.4.4A1.5,1.5,0,0,0,9.5,0ZM9,14H2V5H4v7a.9.9,0,0,0,1,1H9ZM6,11V2H9V4.5a.5.5,0,0,0,.5.5H12v6Z"/><path class="cls-4" d="M11.2,16,16,11.2V9.3L14.5,7.8a1.2,1.2,0,0,0-1.6,0L7.5,13.3V16Z"/><polygon class="cls-4" points="9 16 16 16 16 10 9 16"/><g id="Compose_3_Message_3" data-name="Compose 3, Message 3"><path class="cls-5" d="M8,16h2.5l5.3-5.3a.6.6,0,0,0,0-.9L14.2,8.2a.6.6,0,0,0-.9,0L8,13.5Zm1.3-2,3.6-3.6.7.7L10,14.7H9.3Z"/></g></svg>