<svg id="Layer_1" data-name="Layer 1" xmlns="http://www.w3.org/2000/svg" width="16" height="16" viewBox="0 0 16 16"><defs><style>.cls-1{fill:#555;}</style></defs><title>pages_stack</title><path id="Multiple_Documents_1" data-name="Multiple Documents 1" class="cls-1" d="M10.5,0H6A.9.9,0,0,0,5,1V3H2A1.1,1.1,0,0,0,1,4V15a1.1,1.1,0,0,0,1,1h9a1.1,1.1,0,0,0,1-1V13h2a.9.9,0,0,0,1-1V4.5a1.5,1.5,0,0,0-.4-.9L11.4.4A1.5,1.5,0,0,0,10.5,0ZM10,14H3V5H5v7a.9.9,0,0,0,1,1h4ZM7,11V2h3V4.5a.5.5,0,0,0,.5.5H13v6Z"/></svg>