<svg id="Layer_1" data-name="Layer 1" xmlns="http://www.w3.org/2000/svg" xmlns:xlink="http://www.w3.org/1999/xlink" width="16" height="16" viewBox="0 0 16 16"><defs><style>.cls-1{fill:none;}.cls-2{fill:#19b698;}.cls-3,.cls-4{fill:#555;}.cls-3{fill-rule:evenodd;}.cls-5{fill:#fff;}.cls-6{fill:url(#New_Pattern_Swatch_3);}</style><pattern id="New_Pattern_Swatch_3" data-name="New Pattern Swatch 3" width="6" height="6" patternTransform="translate(19 7.1) scale(0.47)" patternUnits="userSpaceOnUse" viewBox="0 0 6 6"><rect class="cls-1" width="6" height="6"/><rect class="cls-2" width="6" height="6"/></pattern></defs><title>picture_link</title><g id="Photo_1_Image_1" data-name="Photo 1, Image 1"><path class="cls-3" d="M9,10,5.4,6.4a.6.6,0,0,0-.8,0L3.4,7.6a1.5,1.5,0,0,0-.4.9v4a.5.5,0,0,0,.5.5h9a.5.5,0,0,0,.5-.5v-2a1.5,1.5,0,0,0-.4-.9L11.4,8.4a.6.6,0,0,0-.8,0Z"/><circle class="cls-4" cx="10.5" cy="5.5" r="1.5"/><path class="cls-3" d="M15,0H1A.9.9,0,0,0,0,1V15a.9.9,0,0,0,1,1H15a.9.9,0,0,0,1-1V1A.9.9,0,0,0,15,0ZM14,14H2V2H14Z"/></g><rect class="cls-5" x="10.7" y="11.7" width="5.3" height="4.27"/><path class="cls-5" d="M16,9.7,14.7,8.4a1.7,1.7,0,0,0-2.1,0L11.2,9.8a1.6,1.6,0,0,0-.3.9h0c0,.1.1.2.1.3a1.1,1.1,0,0,0-1.2.2L8.4,12.6a1.7,1.7,0,0,0,0,2.1L9.7,16H12l1.3-1.3a.8.8,0,0,0,.3-.9h0v-.3a.9.9,0,0,0,1.1-.2L16,12Z"/><g id="Link_2" data-name="Link 2"><path class="cls-6" d="M13,8.8l-1.4,1.4c-.1.1-.2.3-.1.4a7.7,7.7,0,0,0,.2,1.5l-.8.9a.4.4,0,0,0,0,.6.5.5,0,0,0,.7,0l.4-.3v.5l-.9.9a.5.5,0,0,1-.7,0L9.9,14a.5.5,0,0,1,0-.7l1-1a.5.5,0,0,0,0-.7.5.5,0,0,0-.7,0L8.8,13a.9.9,0,0,0,0,1.3l1.4,1.4a1,1,0,0,0,1.4,0L13,14.3c.1-.1.1-.2.1-.4l-.3-1.5.8-.8a.5.5,0,0,0,0-.7.4.4,0,0,0-.6,0l-.4.4v-.6l.8-.8a.5.5,0,0,1,.7,0l.7.6a.5.5,0,0,1,0,.7l-1.1,1.1c-.2.2-.1.5,0,.7h.7l1.4-1.4a1,1,0,0,0,0-1.4L14.3,8.8A.9.9,0,0,0,13,8.8Z"/></g></svg>