<svg id="Layer_1" data-name="Layer 1" xmlns="http://www.w3.org/2000/svg" xmlns:xlink="http://www.w3.org/1999/xlink" width="16" height="16" viewBox="0 0 16 16"><defs><style>.cls-1{fill:none;}.cls-2{fill:#19b698;}.cls-3{fill-rule:evenodd;fill:url(#New_Pattern_Swatch_3);}</style><pattern id="New_Pattern_Swatch_3" data-name="New Pattern Swatch 3" width="6" height="6" patternUnits="userSpaceOnUse" viewBox="0 0 6 6"><rect class="cls-1" width="6" height="6"/><rect class="cls-2" width="6" height="6"/></pattern></defs><title>plus-button</title><g id="Plus_3" data-name="Plus 3"><path class="cls-3" d="M15,0H1A.9.9,0,0,0,0,1V15a.9.9,0,0,0,1,1H15a.9.9,0,0,0,1-1V1A.9.9,0,0,0,15,0ZM14,14H2V2H14Z"/><path class="cls-3" d="M4.5,9H7v2.5a.5.5,0,0,0,.5.5h1a.5.5,0,0,0,.5-.5V9h2.5a.5.5,0,0,0,.5-.5v-1a.5.5,0,0,0-.5-.5H9V4.5A.5.5,0,0,0,8.5,4h-1a.5.5,0,0,0-.5.5V7H4.5a.5.5,0,0,0-.5.5v1A.5.5,0,0,0,4.5,9Z"/></g></svg>