<svg id="Layer_2" data-name="Layer 2" xmlns="http://www.w3.org/2000/svg" width="360" height="30" viewBox="0 0 360 30"><defs><style>.cls-1,.cls-2{fill:#ccc;}.cls-2{stroke:#ccc;}.cls-2,.cls-4{stroke-miterlimit:10;}.cls-3,.cls-4{fill:#19b698;}.cls-4{stroke:#19b698;}</style></defs><title>prettycheckable</title><g id="Target_1_Aim_2" data-name="Target 1, Aim 2"><path class="cls-1" d="M195.5,5.5A9.5,9.5,0,1,0,205,15,9.4,9.4,0,0,0,195.5,5.5Zm0,16.6a7.1,7.1,0,1,1,7.1-7.1A7.1,7.1,0,0,1,195.5,22.1Z"/></g><g id="Target_1_Aim_2-2" data-name="Target 1, Aim 2"><path class="cls-2" d="M345.1,10.2a4.8,4.8,0,1,0,4.7,4.8A4.8,4.8,0,0,0,345.1,10.2Z"/><path class="cls-1" d="M345.1,5.5a9.5,9.5,0,1,0,9.5,9.5A9.5,9.5,0,0,0,345.1,5.5Zm0,16.6a7.1,7.1,0,1,1,7.1-7.1A7.1,7.1,0,0,1,345.1,22.1Z"/></g><g id="Target_1_Aim_2-3" data-name="Target 1, Aim 2"><path class="cls-1" d="M315.1,5.5a9.5,9.5,0,1,0,9.6,9.5A9.5,9.5,0,0,0,315.1,5.5Zm0,16.6a7.1,7.1,0,1,1,7.2-7.1A7.1,7.1,0,0,1,315.1,22.1Z"/></g><g id="Target_1_Aim_2-4" data-name="Target 1, Aim 2"><path class="cls-3" d="M255.3,10.2a4.8,4.8,0,0,0,0,9.6,4.8,4.8,0,1,0,0-9.6Z"/><path class="cls-1" d="M255.3,5.5a9.5,9.5,0,1,0,9.5,9.5A9.5,9.5,0,0,0,255.3,5.5Zm0,16.6a7.1,7.1,0,1,1,7.2-7.1A7.1,7.1,0,0,1,255.3,22.1Z"/></g><g id="Target_1_Aim_2-5" data-name="Target 1, Aim 2"><path class="cls-3" d="M285.2,10.2A4.8,4.8,0,1,0,290,15,4.8,4.8,0,0,0,285.2,10.2Z"/><path class="cls-3" d="M285.2,5.5a9.5,9.5,0,1,0,9.5,9.5A9.5,9.5,0,0,0,285.2,5.5Zm0,16.6a7.1,7.1,0,1,1,7.2-7.1A7.1,7.1,0,0,1,285.2,22.1Z"/></g><path class="cls-3" d="M225.4,5.5a9.5,9.5,0,1,0,9.5,9.5A9.5,9.5,0,0,0,225.4,5.5Zm0,16.6a7.1,7.1,0,1,1,7.1-7.1A7.1,7.1,0,0,1,225.4,22.1Z"/><g id="Checkmark_1" data-name="Checkmark 1"><path class="cls-4" d="M103,19.4l-4-3.9a.6.6,0,0,1,0-.8l.8-.8a.6.6,0,0,1,.8,0l2.8,2.8,6.2-6.1a.6.6,0,0,1,.8,0l.8.8a.6.6,0,0,1,0,.8l-7.4,7.2A.6.6,0,0,1,103,19.4Z"/></g><path class="cls-3" d="M114,4.9H96.3A1.3,1.3,0,0,0,95,6.2V23.8a1.3,1.3,0,0,0,1.3,1.3H114a1.2,1.2,0,0,0,1.2-1.3V6.2A1.2,1.2,0,0,0,114,4.9Zm-1.3,17.7H97.5V7.4h15.2Z"/><g id="Checkmark_1-2" data-name="Checkmark 1"><path class="cls-4" d="M73,19.4l-4-3.9a.6.6,0,0,1,0-.8l.8-.8a.6.6,0,0,1,.8,0l2.8,2.8,6.2-6.1a.6.6,0,0,1,.8,0l.8.8a.6.6,0,0,1,0,.8l-7.4,7.2A.6.6,0,0,1,73,19.4Z"/></g><path class="cls-1" d="M84,4.9H66.3A1.3,1.3,0,0,0,65,6.2V23.8a1.3,1.3,0,0,0,1.3,1.3H84a1.2,1.2,0,0,0,1.2-1.3V6.2A1.2,1.2,0,0,0,84,4.9ZM82.7,22.6H67.5V7.4H82.7Z"/><path class="cls-1" d="M144,4.9H126.3A1.3,1.3,0,0,0,125,6.2V23.8a1.3,1.3,0,0,0,1.3,1.3H144a1.2,1.2,0,0,0,1.2-1.3V6.2A1.2,1.2,0,0,0,144,4.9Zm-1.3,17.7H127.5V7.4h15.2Z"/><g id="Checkmark_1-3" data-name="Checkmark 1"><path class="cls-2" d="M163,19.4l-4-3.9a.6.6,0,0,1,0-.8l.8-.8a.6.6,0,0,1,.8,0l2.8,2.8,6.2-6.1a.6.6,0,0,1,.8,0l.8.8a.6.6,0,0,1,0,.8l-7.4,7.2A.6.6,0,0,1,163,19.4Z"/></g><path class="cls-1" d="M174,4.9H156.3A1.3,1.3,0,0,0,155,6.2V23.8a1.3,1.3,0,0,0,1.3,1.3H174a1.2,1.2,0,0,0,1.2-1.3V6.2A1.2,1.2,0,0,0,174,4.9Zm-1.3,17.7H157.5V7.4h15.2Z"/><path class="cls-1" d="M24,4.9H6.3A1.3,1.3,0,0,0,5,6.2V23.8a1.3,1.3,0,0,0,1.3,1.3H24a1.2,1.2,0,0,0,1.2-1.3V6.2A1.2,1.2,0,0,0,24,4.9ZM22.7,22.6H7.5V7.4H22.7Z"/><path class="cls-3" d="M54,4.9H36.3A1.3,1.3,0,0,0,35,6.2V23.8a1.3,1.3,0,0,0,1.3,1.3H54a1.2,1.2,0,0,0,1.2-1.3V6.2A1.2,1.2,0,0,0,54,4.9ZM52.7,22.6H37.5V7.4H52.7Z"/></svg>