<svg id="Layer_1" data-name="Layer 1" xmlns="http://www.w3.org/2000/svg" xmlns:xlink="http://www.w3.org/1999/xlink" width="16" height="16" viewBox="0 0 16 16"><defs><style>.cls-1{fill:none;}.cls-2{fill:#ea6153;}.cls-3{fill:#555;}.cls-3,.cls-4{fill-rule:evenodd;}.cls-4{fill:url(#New_Pattern_Swatch_5);}</style><pattern id="New_Pattern_Swatch_5" data-name="New Pattern Swatch 5" width="6" height="6" patternUnits="userSpaceOnUse" viewBox="0 0 6 6"><rect class="cls-1" width="6" height="6"/><rect class="cls-2" width="6" height="6"/></pattern></defs><title>publish_r</title><path class="cls-3" d="M14.6,3.6,11.4.4a1.5,1.5,0,0,0-.9-.4H2A.9.9,0,0,0,1,1V15a.9.9,0,0,0,1,1H14a.9.9,0,0,0,1-1V4.5A1.5,1.5,0,0,0,14.6,3.6ZM13,14H3V2H9V5.5a.5.5,0,0,0,.5.5H13Z"/><path class="cls-4" d="M8,8.6,6.6,7.2a.5.5,0,0,0-.7,0l-.8.7a.9.9,0,0,0,0,.7L6.6,10,5.1,11.4a.9.9,0,0,0,0,.7l.8.7a.5.5,0,0,0,.7,0L8,11.4l1.4,1.5h.7l.8-.8a.8.8,0,0,0,0-.7L9.4,10l1.5-1.4a.8.8,0,0,0,0-.7l-.8-.8H9.4Z"/></svg>