<svg id="Layer_1" data-name="Layer 1" xmlns="http://www.w3.org/2000/svg" width="16" height="16" viewBox="0 0 16 16"><defs><style>.cls-1{fill:#b3b3b3;fill-rule:evenodd;}</style></defs><title>publish_x_f2</title><g id="X_2" data-name="X 2"><path class="cls-1" d="M8,0a8,8,0,1,0,8,8A8,8,0,0,0,8,0ZM8,14a6,6,0,1,1,6-6A6,6,0,0,1,8,14Z"/><path class="cls-1" d="M10.7,5.3a.9.9,0,0,0-1.3,0L8,6.6,6.6,5.3a.9.9,0,0,0-1.3,0,.9.9,0,0,0,0,1.3L6.6,8,5.3,9.4a.9.9,0,0,0,0,1.3.9.9,0,0,0,1.3,0L8,9.4l1.4,1.3a.9.9,0,1,0,1.3-1.3L9.4,8l1.3-1.4A.9.9,0,0,0,10.7,5.3Z"/></g></svg>