<svg id="Layer_1" data-name="Layer 1" xmlns="http://www.w3.org/2000/svg" xmlns:xlink="http://www.w3.org/1999/xlink" width="16" height="16" viewBox="0 0 16 16"><defs><style>.cls-1{fill:none;}.cls-2{fill:#f16e3f;}.cls-3{fill:#555;fill-rule:evenodd;}.cls-4{fill:url(#New_Pattern_Swatch_2);}</style><pattern id="New_Pattern_Swatch_2" data-name="New Pattern Swatch 2" width="6" height="6" patternTransform="translate(2.7 3) scale(0.86)" patternUnits="userSpaceOnUse" viewBox="0 0 6 6"><rect class="cls-1" width="6" height="6"/><rect class="cls-2" width="6" height="6"/></pattern></defs><title>publish_y</title><path class="cls-3" d="M14.6,3.6,11.4.4a1.5,1.5,0,0,0-.9-.4H2A.9.9,0,0,0,1,1V15a.9.9,0,0,0,1,1H14a.9.9,0,0,0,1-1V4.5A1.5,1.5,0,0,0,14.6,3.6ZM13,14H3V2H9V5.5a.5.5,0,0,0,.5.5H13Z"/><rect class="cls-4" x="7.1" y="7" width="1.7" height="3.43" rx="0.4"/><rect class="cls-4" x="7.1" y="11.3" width="1.7" height="1.71" rx="0.4"/></svg>