<svg id="Layer_1" data-name="Layer 1" xmlns="http://www.w3.org/2000/svg" xmlns:xlink="http://www.w3.org/1999/xlink" width="16" height="16" viewBox="0 0 16 16"><defs><style>.cls-1{fill:none;}.cls-2{fill:#ea6153;}.cls-3{fill:#555;}.cls-4,.cls-5{fill:url(#New_Pattern_Swatch_5);}.cls-5{fill-rule:evenodd;}</style><pattern id="New_Pattern_Swatch_5" data-name="New Pattern Swatch 5" width="6" height="6" patternTransform="translate(3.5 15.5)" patternUnits="userSpaceOnUse" viewBox="0 0 6 6"><rect class="cls-1" width="6" height="6"/><rect class="cls-2" width="6" height="6"/></pattern></defs><title>pushished_expired</title><path class="cls-3" d="M8.8,13.9H8a6,6,0,1,1,6-6,2.2,2.2,0,0,1-.1.8,4,4,0,0,1,1.8,1.3A7.1,7.1,0,0,0,16,8a8,8,0,1,0-8,8,7.1,7.1,0,0,0,2.1-.3A4,4,0,0,1,8.8,13.9Z"/><g id="Minus_2" data-name="Minus 2"><path class="cls-4" d="M12.5,9A3.5,3.5,0,1,0,16,12.5,3.5,3.5,0,0,0,12.5,9Zm0,6.1a2.6,2.6,0,1,1,2.6-2.6A2.6,2.6,0,0,1,12.5,15.1Z"/><path class="cls-5" d="M13.8,12.1H11.2a.4.4,0,1,0,0,.8h2.6a.4.4,0,0,0,0-.8Z"/></g><path class="cls-3" d="M11,8.8A1.1,1.1,0,0,0,10,8H8V6A.9.9,0,0,0,7,5,.9.9,0,0,0,6,6V9a.9.9,0,0,0,1,1H9.4A4,4,0,0,1,11,8.8Z"/></svg>