<svg id="Layer_1" data-name="Layer 1" xmlns="http://www.w3.org/2000/svg" xmlns:xlink="http://www.w3.org/1999/xlink" width="16" height="16" viewBox="0 0 16 16"><defs><style>.cls-1{fill:none;}.cls-2{fill:#4aa3df;}.cls-3{fill:#555;}.cls-4{fill:url(#New_Pattern_Swatch_4);}</style><pattern id="New_Pattern_Swatch_4" data-name="New Pattern Swatch 4" width="6" height="6" patternUnits="userSpaceOnUse" viewBox="0 0 6 6"><rect class="cls-1" width="6" height="6"/><rect class="cls-2" width="6" height="6"/></pattern></defs><title>question</title><path class="cls-3" d="M8,0a8,8,0,1,0,8,8A8,8,0,0,0,8,0ZM8,14a6,6,0,1,1,6-6A6,6,0,0,1,8,14Z"/><path class="cls-4" d="M8,3A3.1,3.1,0,0,0,5,5.5c0,.3.1.5.5.5h1A.5.5,0,0,0,7,5.5.5.5,0,0,1,7.5,5h1a.5.5,0,0,1,.5.5v1a.5.5,0,0,1-.5.5H7.8C7.1,7,7,7.4,7,8V9.5a.5.5,0,0,0,.5.5h1A.5.5,0,0,0,9,9.5V8.8A2.9,2.9,0,0,0,11,6,2.9,2.9,0,0,0,8,3Z"/><rect class="cls-4" x="7" y="11" width="2" height="2" rx="0.5"/></svg>