<svg id="Layer_1" data-name="Layer 1" xmlns="http://www.w3.org/2000/svg" width="16" height="16" viewBox="0 0 16 16"><defs><style>.cls-1{fill:#555;}</style></defs><title>relationships</title><path id="Network_1" data-name="Network 1" class="cls-1" d="M15,12V9a.9.9,0,0,0-1-1H9V6h1a.9.9,0,0,0,1-1V1a.9.9,0,0,0-1-1H6A.9.9,0,0,0,5,1V5A.9.9,0,0,0,6,6H7V8H2A.9.9,0,0,0,1,9v3a.9.9,0,0,0-1,1v2a.9.9,0,0,0,1,1H3a.9.9,0,0,0,1-1V13a.9.9,0,0,0-1-1V10H7v2a.9.9,0,0,0-1,1v2a.9.9,0,0,0,1,1H9a.9.9,0,0,0,1-1V13a.9.9,0,0,0-1-1V10h4v2a.9.9,0,0,0-1,1v2a.9.9,0,0,0,1,1h2a.9.9,0,0,0,1-1V13A.9.9,0,0,0,15,12ZM7.5,2h1a.5.5,0,0,1,.5.5v1a.5.5,0,0,1-.5.5h-1A.5.5,0,0,1,7,3.5v-1A.5.5,0,0,1,7.5,2Z"/></svg>