<svg id="Layer_1" data-name="Layer 1" xmlns="http://www.w3.org/2000/svg" width="60" height="40" viewBox="0 0 60 40"><defs><style>.cls-1{fill:#555;}.cls-2,.cls-3{fill:#888;}.cls-3{fill-rule:evenodd;}</style></defs><title>Artboard 1</title><path id="X_1" data-name="X 1" class="cls-1" d="M56.6,19.8l-2.2-2.1,2.2-2.1a.6.6,0,0,0,0-.6l-.7-.6c-.1-.2-.4-.2-.6,0l-2.1,2.1-2.1-2.1c-.1-.2-.4-.2-.6,0l-.6.6c-.2.2-.2.5,0,.6L52,17.7l-2.1,2.1c-.2.2-.2.5,0,.6l.6.7h.6l2.1-2.2,2.1,2.2h.6l.7-.7A.6.6,0,0,0,56.6,19.8Z"/><path id="X_1-2" data-name="X 1" class="cls-2" d="M56.6,8.8,54.4,6.7l2.2-2.1a.6.6,0,0,0,0-.6l-.7-.6c-.1-.2-.4-.2-.6,0L53.2,5.5,51.1,3.4c-.1-.2-.4-.2-.6,0l-.6.6c-.2.2-.2.5,0,.6L52,6.7,49.9,8.8c-.2.2-.2.5,0,.6l.6.7h.6l2.1-2.2,2.1,2.2h.6l.7-.7A.6.6,0,0,0,56.6,8.8Z"/><g id="Zoom_2_Magnifying_Glass_2" data-name="Zoom 2, Magnifying Glass 2"><path class="cls-3" d="M53.8,37.7l-2.4-2.3h0a5.2,5.2,0,0,0,1.1-3.2,5.3,5.3,0,1,0-5.3,5.3,5.2,5.2,0,0,0,3.2-1.1h0l2.3,2.4.5.2.6-.2A.8.8,0,0,0,53.8,37.7ZM47.2,36A3.8,3.8,0,1,1,51,32.2,3.8,3.8,0,0,1,47.2,36Z"/></g><polygon class="cls-2" points="26 10 23 15 26 15 29 15 26 10"/><polygon class="cls-2" points="8 15 11 10 8 10 5 10 8 15"/></svg>