<svg id="Layer_1" data-name="Layer 1" xmlns="http://www.w3.org/2000/svg" width="16" height="16" viewBox="0 0 16 16"><defs><style>.cls-1{fill:#ec971f;}</style></defs><title>star</title><g id="Star_2" data-name="Star 2"><path class="cls-1" d="M12.4,15.9,8,13.5,3.6,15.9c-.5.2-.8,0-.7-.5l.9-5.2L.2,6.6c-.3-.3-.2-.7.3-.8l4.9-.7L7.6.3a.4.4,0,0,1,.8,0l2.2,4.8,4.9.7c.5.1.6.5.3.8l-3.6,3.6.9,5.2C13.2,15.9,12.9,16.1,12.4,15.9Zm-9-8.6L5.7,9.6l-.5,3.3L8,11.3l2.8,1.6-.5-3.3,2.3-2.3L9.4,6.8,8,3.8l-1.4,3Z"/></g></svg>