<svg id="Layer_1" data-name="Layer 1" xmlns="http://www.w3.org/2000/svg" xmlns:xlink="http://www.w3.org/1999/xlink" width="16" height="16" viewBox="0 0 16 16"><defs><style>.cls-1{fill:none;}.cls-2{fill:#555;}.cls-3,.cls-4{fill:url(#New_Pattern_Swatch_1);}.cls-4{fill-rule:evenodd;}</style><pattern id="New_Pattern_Swatch_1" data-name="New Pattern Swatch 1" width="6" height="6" patternUnits="userSpaceOnUse" viewBox="0 0 6 6"><rect class="cls-1" width="6" height="6"/><rect class="cls-2" width="6" height="6"/></pattern></defs><title>table_multiple</title><rect class="cls-3" x="7" y="8" width="6" height="2" rx="0.5"/><rect class="cls-3" x="7" y="5" width="6" height="2" rx="0.5"/><path class="cls-4" d="M15,0H5A1.1,1.1,0,0,0,4,1V12a1.1,1.1,0,0,0,1,1H15a1.1,1.1,0,0,0,1-1V1A1.1,1.1,0,0,0,15,0ZM6,1.5A.5.5,0,0,1,6.5,1h1a.5.5,0,0,1,.5.5v1a.5.5,0,0,1-.5.5h-1A.5.5,0,0,1,6,2.5ZM14,11H6V4h8Z"/><path class="cls-4" d="M10,13v1H2V7H6V3H1A1.1,1.1,0,0,0,0,4V15a1.1,1.1,0,0,0,1,1H11a1.1,1.1,0,0,0,1-1V13ZM2,4.5A.5.5,0,0,1,2.5,4h1a.5.5,0,0,1,.5.5v1a.5.5,0,0,1-.5.5h-1A.5.5,0,0,1,2,5.5Z"/></svg>