<svg id="Layer_1" data-name="Layer 1" xmlns="http://www.w3.org/2000/svg" xmlns:xlink="http://www.w3.org/1999/xlink" width="16" height="16" viewBox="0 0 16 16"><defs><style>.cls-1{fill:none;}.cls-2{fill:#ea6153;}.cls-3,.cls-4{fill:url(#New_Pattern_Swatch_5);}.cls-4,.cls-6{fill-rule:evenodd;}.cls-5,.cls-6{fill:#555;}</style><pattern id="New_Pattern_Swatch_5" data-name="New Pattern Swatch 5" width="6" height="6" patternTransform="translate(9.5 15.5)" patternUnits="userSpaceOnUse" viewBox="0 0 6 6"><rect class="cls-1" width="6" height="6"/><rect class="cls-2" width="6" height="6"/></pattern></defs><title>tag_blue_delete</title><g id="Minus_2" data-name="Minus 2"><path class="cls-3" d="M12.5,9A3.5,3.5,0,1,0,16,12.5,3.5,3.5,0,0,0,12.5,9Zm0,6.1a2.6,2.6,0,1,1,2.6-2.6A2.6,2.6,0,0,1,12.5,15.1Z"/><path class="cls-4" d="M13.8,12.1H11.2a.4.4,0,1,0,0,.8h2.6a.4.4,0,0,0,0-.8Z"/></g><rect class="cls-5" x="4" y="4" width="3" height="3" rx="1"/><path class="cls-6" d="M8.5,13l-.5.6-6-6V2H7.6l6,6-.6.5a4.1,4.1,0,0,1,2,.9l.7-.7a1,1,0,0,0,0-1.4L8.8.4A1.5,1.5,0,0,0,7.9,0H1A.9.9,0,0,0,0,1V7.9a1.5,1.5,0,0,0,.4.9l6.9,6.9a1,1,0,0,0,1.4,0l.7-.7A4.1,4.1,0,0,1,8.5,13Z"/></svg>