<svg id="Layer_1" data-name="Layer 1" xmlns="http://www.w3.org/2000/svg" width="16" height="16" viewBox="0 0 16 16"><defs><style>.cls-1,.cls-2{fill:#555;}.cls-2{fill-rule:evenodd;}</style></defs><title>text_area</title><g id="Paragraph_Text_1" data-name="Paragraph Text 1"><rect class="cls-1" x="4" y="4" width="2" height="2" rx="0.5"/><rect class="cls-1" x="7" y="4" width="5" height="2" rx="0.5"/><rect class="cls-1" x="4" y="10" width="8" height="2" rx="0.5"/><rect class="cls-1" x="4" y="7" width="8" height="2" rx="0.5"/><path class="cls-2" d="M15,0H1A.9.9,0,0,0,0,1V15a.9.9,0,0,0,1,1H15a.9.9,0,0,0,1-1V1A.9.9,0,0,0,15,0ZM14,14H2V2H14Z"/></g></svg>