<svg id="Layer_1" data-name="Layer 1" xmlns="http://www.w3.org/2000/svg" width="16" height="16" viewBox="0 0 16 16"><defs><style>.cls-1{fill:#555;}.cls-2{fill:#b3b3b3;fill-rule:evenodd;}.cls-3{fill:#ec971f;}</style></defs><title>textfield_key</title><rect class="cls-1" x="3" y="5.5" width="2" height="5" rx="0.5"/><path class="cls-2" d="M7.2,12.8a1.1,1.1,0,0,1,0-1.3H2v-7H6.2v-2H1a.9.9,0,0,0-1,1v9a.9.9,0,0,0,1,1H8Z"/><path class="cls-2" d="M15.1,7.9h-.5v5a1.3,1.3,0,0,1-.1.6H15a.9.9,0,0,0,1-1V7.6A1.6,1.6,0,0,1,15.1,7.9Z"/><g id="Key_2_Password_2" data-name="Key 2, Password 2"><path class="cls-3" d="M11.7,15.9l2.1-2.2c.2-.1.3-.5.3-.8V7.4h1a.9.9,0,0,0,.9-.9V.9a.9.9,0,0,0-.9-.9H7.5a.8.8,0,0,0-.8.9V6.5a.9.9,0,0,0,.9.9h1V8l-1,1a.4.4,0,0,0,0,.6l1,1v.2l-1,1c-.2.1-.2.4,0,.6L11,15.9ZM9.9,12.1l.5-.6V9.8l-.5-.5.5-.5V5.6H8.6V1.9h5.5V5.6H12.3v7l-.9,1Z"/><rect class="cls-3" x="9.5" y="2.8" width="3.7" height="1.86" rx="0.5"/></g></svg>