<svg id="Layer_1" data-name="Layer 1" xmlns="http://www.w3.org/2000/svg" xmlns:xlink="http://www.w3.org/1999/xlink" width="16" height="16" viewBox="0 0 16 16"><defs><style>.cls-1{fill:none;}.cls-2{fill:#ea6153;}.cls-3{fill:url(#New_Pattern_Swatch_5);}</style><pattern id="New_Pattern_Swatch_5" data-name="New Pattern Swatch 5" width="6" height="6" patternTransform="translate(-4 2) rotate(180)" patternUnits="userSpaceOnUse" viewBox="0 0 6 6"><rect class="cls-1" width="6" height="6"/><rect class="cls-2" width="6" height="6"/></pattern></defs><title>thumb_down</title><g id="Thumbs_Up_1_Like_1" data-name="Thumbs Up 1, Like 1"><path class="cls-3" d="M1.4,0H8a2.2,2.2,0,0,1,2.3,1.9h1V.9h3.3A1.5,1.5,0,0,1,16,2.4V8.9a1.5,1.5,0,0,1-1.4,1.5H11.3v-1h-.5c-1.6,0-2.7,3-3.2,5.7a1.1,1.1,0,0,1-1,.9H6.1a1.4,1.4,0,0,1-1.4-1.4V11.3H1.4A1.4,1.4,0,0,1,0,9.9,1.7,1.7,0,0,1,.7,8.6H.9L.7,8.3A1.4,1.4,0,0,1,0,7.1,1.6,1.6,0,0,1,.7,5.8h0c.2-.1.2-.1.2-.2H.7A1.4,1.4,0,0,1,0,4.3,1.4,1.4,0,0,1,.7,3c.2-.1.2-.1.2-.2H.7A1.6,1.6,0,0,1,0,1.4,1.4,1.4,0,0,1,1.4,0ZM12.3,2.9H9.4V2.4A1.3,1.3,0,0,0,8,1H1.4a.4.4,0,0,0-.4.4.5.5,0,0,0,.2.4c.5.3.7.6.7,1a1.3,1.3,0,0,1-.7,1.1c-.1,0-.2.2-.2.4s.1.3.2.3a1.3,1.3,0,0,1,.7,1.1c0,.4-.2.7-.7,1h0a.5.5,0,0,0-.2.4c0,.1.1.3.2.3a1.3,1.3,0,0,1,.7,1.1c0,.4-.2.7-.7,1a.5.5,0,0,0-.2.4.4.4,0,0,0,.4.4H4.7a.9.9,0,0,1,1,1v3.3a.4.4,0,0,0,.4.4h.5c.4-2,1.5-6.6,4.2-6.6h1.5v1h2.3a.5.5,0,0,0,.4-.5V2.4a.5.5,0,0,0-.4-.5H12.3Z"/></g><rect class="cls-3" x="11.3" y="2.1" width="1" height="7.06"/></svg>