<svg id="Layer_1" data-name="Layer 1" xmlns="http://www.w3.org/2000/svg" xmlns:xlink="http://www.w3.org/1999/xlink" width="16" height="16" viewBox="0 0 16 16"><defs><style>.cls-1{fill:none;}.cls-2{fill:#19b698;}.cls-3{fill:url(#New_Pattern_Swatch_3);}</style><pattern id="New_Pattern_Swatch_3" data-name="New Pattern Swatch 3" width="6" height="6" patternUnits="userSpaceOnUse" viewBox="0 0 6 6"><rect class="cls-1" width="6" height="6"/><rect class="cls-2" width="6" height="6"/></pattern></defs><title>thumb_up</title><g id="Thumbs_Up_1_Like_1" data-name="Thumbs Up 1, Like 1"><path class="cls-3" d="M14.6,16H8a2.2,2.2,0,0,1-2.3-1.9H4.8v1H1.4A1.5,1.5,0,0,1,0,13.6V7.1A1.5,1.5,0,0,1,1.4,5.6H4.8v1h.4c1.6,0,2.7-3,3.2-5.7a1.1,1.1,0,0,1,1-.9h.5a1.4,1.4,0,0,1,1.4,1.4V4.7h3.3A1.4,1.4,0,0,1,16,6.1a1.7,1.7,0,0,1-.7,1.3h-.2l.2.2A1.4,1.4,0,0,1,16,8.9a1.6,1.6,0,0,1-.7,1.3h0l-.2.2h.2a1.4,1.4,0,0,1,.7,1.3,1.4,1.4,0,0,1-.7,1.2l-.2.2h.2a1.6,1.6,0,0,1,.7,1.3A1.4,1.4,0,0,1,14.6,16ZM3.8,13.1H6.6v.5A1.3,1.3,0,0,0,8,15h6.6a.4.4,0,0,0,.4-.4.5.5,0,0,0-.2-.4c-.5-.3-.7-.6-.7-1a1.3,1.3,0,0,1,.7-1.1c.1,0,.2-.2.2-.3s-.1-.4-.2-.4a1.3,1.3,0,0,1-.7-1.1c0-.4.2-.7.7-1h0a.5.5,0,0,0,.2-.4c0-.1-.1-.3-.2-.3a1.3,1.3,0,0,1-.7-1.1c0-.4.2-.7.7-1a.5.5,0,0,0,.2-.4.4.4,0,0,0-.4-.4H11.3a.9.9,0,0,1-1-1V1.4A.4.4,0,0,0,9.9,1H9.4C9,3,7.9,7.6,5.2,7.6H3.8v-1H1.4a.5.5,0,0,0-.4.5v6.5a.5.5,0,0,0,.4.5H3.8Z"/></g><rect class="cls-3" x="3.8" y="6.8" width="1" height="7.06"/></svg>