<svg id="Layer_1" data-name="Layer 1" xmlns="http://www.w3.org/2000/svg" xmlns:xlink="http://www.w3.org/1999/xlink" width="16" height="16" viewBox="0 0 16 16"><defs><style>.cls-1{fill:none;}.cls-2{fill:#19b698;}.cls-3{fill-rule:evenodd;fill:url(#New_Pattern_Swatch_3);}</style><pattern id="New_Pattern_Swatch_3" data-name="New Pattern Swatch 3" width="6" height="6" patternUnits="userSpaceOnUse" viewBox="0 0 6 6"><rect class="cls-1" width="6" height="6"/><rect class="cls-2" width="6" height="6"/></pattern></defs><title>tick</title><g id="Checkmark_2" data-name="Checkmark 2"><path class="cls-3" d="M8,0a8,8,0,1,0,8,8A8,8,0,0,0,8,0ZM8,14a6,6,0,1,1,6-6A6,6,0,0,1,8,14Z"/><path class="cls-3" d="M10.4,5.3,7,8.7,5.6,7.3a.9.9,0,0,0-1.3,0,1,1,0,0,0,0,1.4l2,2a1,1,0,0,0,1.4,0l4-4.1a.9.9,0,0,0,0-1.3A.9.9,0,0,0,10.4,5.3Z"/></g></svg>