<svg id="Layer_1" data-name="Layer 1" xmlns="http://www.w3.org/2000/svg" width="16" height="16" viewBox="0 0 16 16"><defs><style>.cls-1{fill:#da5a47;}.cls-2{fill:#555;}</style></defs><title>unknown</title><path class="cls-1" d="M6,7.4h.8A.4.4,0,0,0,7.2,7a.4.4,0,0,1,.4-.4h.8a.4.4,0,0,1,.4.4v.8a.4.4,0,0,1-.4.4H7.8c-.5,0-.6.4-.6.8v1.2a.4.4,0,0,0,.4.4h.8a.4.4,0,0,0,.4-.4V9.7a2.6,2.6,0,0,0,1.6-2.3A2.4,2.4,0,0,0,8,5,2.5,2.5,0,0,0,5.6,7,.4.4,0,0,0,6,7.4Z"/><rect class="cls-1" x="7.2" y="11.4" width="1.6" height="1.6" rx="0.4"/><path id="Folder_1" data-name="Folder 1" class="cls-2" d="M15,2H7V1A1.1,1.1,0,0,0,6,0H1A1.1,1.1,0,0,0,0,1V15a1.1,1.1,0,0,0,1,1H15a1.1,1.1,0,0,0,1-1V3A1.1,1.1,0,0,0,15,2ZM14,14H2V2H5V3.5a.5.5,0,0,0,.5.5H14Z"/></svg>