<svg id="Layer_1" data-name="Layer 1" xmlns="http://www.w3.org/2000/svg" xmlns:xlink="http://www.w3.org/1999/xlink" width="16" height="16" viewBox="0 0 16 16"><defs><style>.cls-1{fill:none;}.cls-2{fill:#19b698;}.cls-3{fill:#555;}.cls-3,.cls-4{fill-rule:evenodd;}.cls-4{fill:url(#New_Pattern_Swatch_3);}</style><pattern id="New_Pattern_Swatch_3" data-name="New Pattern Swatch 3" width="6" height="6" patternUnits="userSpaceOnUse" viewBox="0 0 6 6"><rect class="cls-1" width="6" height="6"/><rect class="cls-2" width="6" height="6"/></pattern></defs><title>upload</title><g id="Upload_1" data-name="Upload 1"><path class="cls-3" d="M15.5,8h-1a.5.5,0,0,0-.5.5V14H2V8.5A.5.5,0,0,0,1.5,8H.5a.5.5,0,0,0-.5.5V15a.9.9,0,0,0,1,1H15a.9.9,0,0,0,1-1V8.5A.5.5,0,0,0,15.5,8Z"/><path class="cls-4" d="M5.3,6H7v5.5a.5.5,0,0,0,.5.5h1a.5.5,0,0,0,.5-.5V6h1.7a.3.3,0,0,0,.2-.5L8.3,2.2q-.3-.5-.6,0L5.1,5.5A.3.3,0,0,0,5.3,6Z"/></g></svg>