<svg id="Layer_1" data-name="Layer 1" xmlns="http://www.w3.org/2000/svg" width="16" height="16" viewBox="0 0 16 16"><defs><style>.cls-1{fill:#555;}</style></defs><title>url</title><path id="Link_2" data-name="Link 2" class="cls-1" d="M9.5.6l-3,3a1,1,0,0,0-.2.9c-.1,0,.6,3.2.6,3.2L5,9.5A1.1,1.1,0,0,0,6.5,11l.9-.9.2,1.3L5.8,13.2a1.1,1.1,0,0,1-1.5,0L2.8,11.7a1.1,1.1,0,0,1,0-1.5L5.1,8A1,1,0,0,0,5,6.5a1,1,0,0,0-1.4,0l-3,3a2.1,2.1,0,0,0,0,2.9l3,3a2.1,2.1,0,0,0,2.9,0l3-3a1,1,0,0,0,.2-.9c.1,0-.6-3.2-.6-3.2L11,6.5A1.1,1.1,0,0,0,9.5,5l-.9.9L8.4,4.6l1.8-1.8a1.1,1.1,0,0,1,1.5,0l1.5,1.5a1.1,1.1,0,0,1,0,1.5L10.9,8A1.1,1.1,0,0,0,11,9.5h0a1,1,0,0,0,1.4,0l3-3a2.1,2.1,0,0,0,0-2.9l-3-3A2.1,2.1,0,0,0,9.5.6Z"/></svg>