<svg id="Layer_1" data-name="Layer 1" xmlns="http://www.w3.org/2000/svg" width="16" height="16" viewBox="0 0 16 16"><defs><style>.cls-1{fill:#555;fill-rule:evenodd;}</style></defs><title>user</title><path id="User_4_Profile_5" data-name="User 4, Profile 5" class="cls-1" d="M16,14c-.3-3-1.7-4.9-4.3-5.6A5.1,5.1,0,0,0,13,5,5,5,0,0,0,8,0,5,5,0,0,0,3,5,5.1,5.1,0,0,0,4.3,8.4C1.7,9.1.3,11,0,14v1a.9.9,0,0,0,1,1H15a.9.9,0,0,0,1-1ZM8,2a2.9,2.9,0,0,1,3,3A2.9,2.9,0,0,1,8,8,2.9,2.9,0,0,1,5,5,2.9,2.9,0,0,1,8,2ZM2,14c.3-2.8,1.8-4,5-4H9c3.2,0,4.7,1.2,5,4Z"/></svg>