<svg id="Layer_1" data-name="Layer 1" xmlns="http://www.w3.org/2000/svg" xmlns:xlink="http://www.w3.org/1999/xlink" width="16" height="16" viewBox="0 0 16 16"><defs><style>.cls-1{fill:none;}.cls-2{fill:#f16e3f;}.cls-3{fill:url(#New_Pattern_Swatch_2);}</style><pattern id="New_Pattern_Swatch_2" data-name="New Pattern Swatch 2" width="6" height="6" patternUnits="userSpaceOnUse" viewBox="0 0 6 6"><rect class="cls-1" width="6" height="6"/><rect class="cls-2" width="6" height="6"/></pattern></defs><title>warning</title><g id="Exclamation_Point_1_Warning_1_Caution_1" data-name="Exclamation Point 1, Warning 1, Caution 1"><rect class="cls-3" x="7.1" y="6.6" width="1.8" height="3.56" rx="0.4"/><rect class="cls-3" x="7.1" y="11.1" width="1.8" height="1.78" rx="0.4"/><path class="cls-3" d="M15.9,14.2,8.8.9A.9.9,0,0,0,7.2.9L.1,14.2a1.4,1.4,0,0,0,0,.9.9.9,0,0,0,.8.4H15.1a.9.9,0,0,0,.8-.4A1.4,1.4,0,0,0,15.9,14.2ZM2.4,13.8,8,3.2l5.6,10.6Z"/></g></svg>